<?xml version="1.0" encoding="UTF-8" standalone="no"?>
<!-- Created with Inkscape (http://www.inkscape.org/) -->

<svg
   xmlns:dc="http://purl.org/dc/elements/1.1/"
   xmlns:cc="http://creativecommons.org/ns#"
   xmlns:rdf="http://www.w3.org/1999/02/22-rdf-syntax-ns#"
   xmlns:svg="http://www.w3.org/2000/svg"
   xmlns="http://www.w3.org/2000/svg"
   xmlns:sodipodi="http://sodipodi.sourceforge.net/DTD/sodipodi-0.dtd"
   xmlns:inkscape="http://www.inkscape.org/namespaces/inkscape"
   width="213.70065mm"
   height="164.66234mm"
   viewBox="0 0 213.70065 164.66234"
   version="1.1"
   id="svg1556"
   inkscape:version="0.92.2 2405546, 2018-03-11"
   sodipodi:docname="logo_ilugd.svg">
  <defs
     id="defs1550" />
  <sodipodi:namedview
     id="base"
     pagecolor="#ffffff"
     bordercolor="#666666"
     borderopacity="1.0"
     inkscape:pageopacity="0.0"
     inkscape:pageshadow="2"
     inkscape:zoom="1"
     inkscape:cx="375.40194"
     inkscape:cy="313.22282"
     inkscape:document-units="mm"
     inkscape:current-layer="layer1"
     showgrid="false"
     inkscape:window-width="1920"
     inkscape:window-height="1018"
     inkscape:window-x="0"
     inkscape:window-y="34"
     inkscape:window-maximized="1"
     fit-margin-top="0"
     fit-margin-left="0"
     fit-margin-right="0"
     fit-margin-bottom="0" />
  <metadata
     id="metadata1553">
    <rdf:RDF>
      <cc:Work
         rdf:about="">
        <dc:format>image/svg+xml</dc:format>
        <dc:type
           rdf:resource="http://purl.org/dc/dcmitype/StillImage" />
        <dc:title></dc:title>
      </cc:Work>
    </rdf:RDF>
  </metadata>
  <g
     inkscape:label="Layer 1"
     inkscape:groupmode="layer"
     id="layer1"
     style="opacity:1"
     transform="translate(-2.0328305,-38.581597)">
    <path
       style="opacity:1;fill:#000000;fill-opacity:1;stroke:none;stroke-width:0.08677657"
       d="m 2.0328305,154.68786 12.6622975,0.38961 -2.14285,37.79208 -7.9869874,-0.1948 z"
       id="rect1373"
       inkscape:connector-curvature="0"
       sodipodi:nodetypes="ccccc" />
    <path
       inkscape:connector-curvature="0"
       style="opacity:1;fill:#000000;fill-opacity:1;stroke:none;stroke-width:0.09642334"
       d="m 4.3704857,194.72017 h 8.1817923 v 8.08439 H 4.3704857 Z"
       id="rect1376" />
    <path
       style="opacity:1;fill:#000000;fill-opacity:1;stroke:none;stroke-width:0.09642334"
       d="m 21.513343,154.78527 c 0,16.03892 0,32.07784 0,48.11675 9.188278,0 18.376556,0 27.564834,0 0,-3.44154 0,-6.88308 0,-10.32463 -5.03247,0 -10.064939,0 -15.097409,0 0,-12.59737 0,-25.19474 0,-37.79212 -4.155808,0 -8.311617,0 -12.467425,0 z"
       id="rect1378"
       inkscape:connector-curvature="0" />
    <path
       inkscape:connector-curvature="0"
       style="opacity:1;fill:#000000;fill-opacity:1;stroke:none;stroke-width:0.09642334"
       d="m 156.70765,175.82413 h 11.98048 v 5.84413 h -11.98048 z"
       id="rect1383" />
    <path
       style="opacity:1;fill:#000000;fill-opacity:1;stroke:none;stroke-width:0.09642334"
       d="m 190.10183,153.43271 c -5.02302,0.0287 -9.94424,0.0863 -14.98517,0.0863 v 49.38305 h 12.37006 c 26.304,1.79823 28.24677,-20.74673 28.24677,-22.98698 0,-14.73062 -8.34769,-26.48239 -25.63166,-26.48233 z m -2.61511,10.78397 c 12.23729,0.0557 15.84639,5.38325 15.84639,15.06747 0,1.40308 1.09593,13.07717 -15.84639,13.21056 z"
       id="rect1385"
       inkscape:connector-curvature="0"
       sodipodi:nodetypes="ccccsccscc" />
    <path
       style="opacity:1;fill:#000000;stroke:#000000;stroke-width:0.09642334px;stroke-linecap:butt;stroke-linejoin:miter;stroke-opacity:1"
       d="m 126.51294,175.72674 h 23.76616 c 0.72462,0.72462 1.43648,27.24808 -23.08435,27.46744 -24.25708,0.217 -25.07729,-22.51305 -25.32459,-24.83758 -0.25783,-2.42361 1.27217,-23.55828 24.10707,-24.39928 18.33877,-0.67541 22.06161,12.711 22.06161,12.711 l -11.68827,4.67531 c 0,0 -1.94804,-7.11037 -10.61685,-7.11037 -8.6688,0 -11.52652,8.88715 -11.29866,15.19475 0.21358,5.91244 3.07954,12.42848 11.59087,13.44152 8.99988,1.0712 10.64888,-7.8095 10.61685,-7.88959 h -10.22724 z"
       id="path1393"
       inkscape:connector-curvature="0"
       sodipodi:nodetypes="ccsssccsasccc" />
    <path
       style="fill:#ffcc00;stroke:none;stroke-width:0.09642334px;stroke-linecap:butt;stroke-linejoin:miter;stroke-opacity:1"
       d="m 61.901889,199.72414 c -3.144184,-3.41837 -4.600962,-8.22333 -3.853118,-12.81274 0.270098,-3.19455 0.335432,-6.41795 0.363689,-9.61806 -0.385421,-5.07947 -1.227126,-10.1778 -0.80075,-15.27846 0.163503,-2.8053 3.444578,-2.01537 5.254119,-1.46851 2.10201,0.57824 4.502583,0.49272 6.055991,-1.25238 1.977318,-1.33058 3.3051,-4.41127 5.89391,-4.33784 1.929134,1.66942 2.421164,4.38691 3.654849,6.53533 1.121535,2.51629 3.411326,5.18864 6.435701,4.89057 1.077025,-0.15633 4.639771,-1.74016 1.760311,-1.32449 -3.240751,-0.13697 -4.968489,-3.29965 -6.113115,-5.92096 -1.08372,-2.30768 -2.313498,-5.44392 -5.298667,-5.56702 -3.052604,-0.36054 -4.732787,2.70197 -6.835044,4.30732 -2.699773,1.97001 -5.909285,-0.18117 -8.85293,0.0219 -2.43659,-0.38202 -4.386887,1.65458 -4.552021,3.98192 -0.256215,3.88025 0.890601,7.68789 0.990988,11.56253 0.509507,5.81427 -0.141308,11.626 -0.325366,17.43425 0.08008,4.03027 1.492457,8.71153 5.442302,10.53372 2.332017,1.47692 5.360419,1.9165 7.855741,0.55786 4.708648,-2.37703 8.145749,-6.52836 11.924703,-10.09284 5.753391,-5.9095 11.72369,-12.15402 14.375656,-20.14485 0.907971,-2.39247 -0.202622,-5.17743 -1.970097,-6.87194 -1.650919,-1.7312 -3.778539,1.74335 -1.293616,2.22295 1.78647,1.72043 0.702699,4.5256 -0.280443,6.40408 -3.364246,6.28717 -8.299157,11.50819 -12.834062,16.94478 -2.758875,3.17075 -5.777767,6.12603 -9.006348,8.81195 -2.301015,1.8314 -5.459216,1.8381 -7.992383,0.48088 z"
       id="path1395"
       inkscape:connector-curvature="0" />
    <path
       style="fill:#000000;fill-rule:evenodd;stroke:none;stroke-width:0.77304488"
       d="m 104.86704,38.84143 c -5.672805,1.072321 -10.198002,6.424985 -9.929332,12.26893 -0.55868,6.461082 0.21937,12.939603 0.43678,19.374969 -1.71955,7.254534 -8.795984,11.615964 -10.870904,18.760967 -1.51987,4.277524 -3.391257,8.415929 -5.313357,12.513404 -0.8326,2.8834 -0.62114,6.2717 3.105207,4.5108 4.57802,2.34141 6.893087,7.38932 9.855037,11.36194 2.593837,4.38607 7.101484,9.2713 4.987577,14.71503 -2.84555,4.01647 -8.548897,1.66377 -12.401854,0.67715 -4.852077,-1.5712 -10.019874,-2.0089 -14.796691,-3.77484 -2.00026,-3.0043 2.841457,-7.36738 -0.58603,-10.82734 -1.95929,-5.82642 8.382364,-1.17603 8.696514,-6.70421 0.66385,-4.14322 -2.120807,3.18124 -4.867197,2.09319 -4.207677,-0.66086 -6.336387,2.75345 -4.353077,6.43322 1.00955,3.99997 -4.306957,10.55835 2.788387,11.20018 5.665677,1.05482 11.296264,2.2919 16.686931,4.38228 4.19252,2.31678 8.198787,-0.25914 11.635802,-2.55707 5.122467,-1.7713 10.734097,-1.23509 16.082587,-1.4163 5.2633,-1.37039 6.91679,4.8749 11.47259,5.00357 4.91524,1.16341 8.05382,-3.02331 11.63493,-5.50303 3.79483,-2.89923 9.20649,-3.85104 11.92703,-7.98494 -0.69837,-4.74856 -8.74799,-5.64774 -7.91191,-11.77188 -1.89805,1.80916 0.42812,8.50908 4.66649,9.08175 6.16857,3.31999 -2.96142,6.08514 -5.92819,7.13051 -4.80724,1.46596 -7.84191,6.65358 -13.08758,6.82411 -5.47723,-0.81569 -4.30061,-7.59554 -3.86921,-11.55332 0.82541,-4.60522 -2.40781,-9.2686 -0.2098,-13.66713 3.84985,-2.73209 4.94582,7.63449 10.0629,4.46436 3.34301,-2.33851 7.88982,-5.24229 8.12362,-9.70272 -0.2924,-8.840473 -4.00578,-17.452481 -9.43056,-24.360753 -6.17791,-6.417097 -9.06908,-15.390724 -8.71299,-24.206896 -0.0269,-7.905692 -5.67572,-15.836003 -13.83182,-16.811438 -2.00618,-0.312661 -4.05912,-0.27101 -6.06178,0.04542 m 11.94199,6.218378 c 2.57862,1.67772 -5.36237,3.976038 -2.33138,0.269035 -0.16843,-1.775563 1.64687,-0.954958 2.33153,-0.269092 m -2.17305,7.924472 c 3.45848,1.016859 5.07356,10.972866 0.46011,8.750221 2.73343,-3.832672 -3.92699,-8.722542 -4.88655,-3.171148 -1.18921,5.705422 9.73264,3.263909 7.06409,9.398773 -0.1845,2.044275 -0.40838,4.152842 1.20362,5.686336 2.94908,3.509253 2.83676,8.500775 5.78415,11.96721 2.7368,5.065077 2.74747,10.931173 3.31522,16.499592 3.76175,4.69343 6.72256,-4.215898 4.86441,-7.509667 -0.6164,-4.604 -3.40726,-8.740767 -5.26884,-12.657359 5.56804,5.051689 7.76268,13.315283 6.17147,20.570056 0.74725,0.93365 4.63421,3.47198 0.97219,1.94856 -4.85477,-2.23895 -7.28074,2.88078 -10.64323,4.66305 -1.97169,5.21638 1.06524,10.75574 -0.55217,16.04719 0.0949,1.75944 -1.74488,8.58983 -2.32895,3.72975 0.4219,-1.98994 3.14238,-9.01977 -0.0738,-8.15207 -3.6328,5.39186 -10.81631,6.71191 -16.81288,5.50486 -1.36758,-0.90519 -6.372652,-3.16792 -3.58623,0.24232 2.46812,1.99283 -0.716567,8.17256 -0.488357,2.91789 0.317657,-3.31211 -5.986625,-6.8896 -0.923238,-8.18503 2.707095,-4.83308 -4.533407,-7.15624 -7.071494,-10.11615 -3.56182,-2.928 -7.927677,-6.08925 -7.976997,-11.198137 -0.40899,-2.307228 1.71339,-6.23951 1.04867,-1.607041 -1.18365,2.400768 3.209707,10.445388 3.603547,4.498168 -0.0409,-6.415259 1.70628,-13.078573 5.942247,-18.01629 -1.53095,-4.843436 2.9331,-8.725341 3.459327,-13.340587 2.288165,3.226766 6.212415,7.965165 10.216715,3.381838 1.42301,-1.784256 7.81269,-3.636271 6.29176,-5.156132 -4.07457,1.228737 -8.67477,5.725479 -12.8647,2.586712 -2.561465,-2.849579 5.01,-0.162725 6.32529,-2.027578 1.92147,-1.511462 8.09324,-1.662673 7.42808,-4.266465 -3.85581,2.696605 -8.95803,4.343854 -13.7408,3.733373 -3.473145,-1.27737 -6.262732,-5.661828 -1.17871,-7.193626 4.07525,-1.4567 0.57279,-9.598672 -1.966585,-4.844005 -1.103847,2.043049 3.561495,6.143161 -0.41146,4.120784 -2.408787,-3.199816 0.74073,-12.100933 4.658825,-7.08722 1.88651,1.358965 -0.13483,6.082966 2.94136,5.437498 4.87572,1.52828 0.42824,-7.152174 5.7089,-7.281879 1.06146,-0.459045 2.29163,-0.423622 3.31325,0.125927 m -0.3726,4.314362 c 2.19361,4.615064 -3.4712,-2.014035 -9e-5,8.9e-5 m -13.07099,0.40437 c 1.91121,6.858203 -2.535615,-2.653466 10e-4,0 m 1.20751,3.781732 c -1.09326,1.82642 1.4293,-0.730805 -1.5e-4,1.49e-4 m 5.24897,0.02631 c 1.32922,0.989803 0.54869,-0.903401 0,0 z m 14.25032,6.971308 c 2.72497,0.213682 3.67838,5.033663 0.37496,2.776307 -1.1912,-0.200929 -2.46009,-4.759426 -0.37496,-2.776307 z M 89.223991,86.004111 c 0.144,2.252666 -3.432727,3.305959 -0.9895,0.597558 -0.0166,-0.249622 1.01762,-1.902763 0.9895,-0.597558 z"
       id="path0"
       inkscape:connector-curvature="0" />
  </g>
</svg>
