<?xml version="1.0" encoding="UTF-8" standalone="no"?>
<!-- Created with Inkscape (http://www.inkscape.org/) -->

<svg
   width="1200"
   height="675"
   viewBox="0 0 1200 675"
   version="1.1"
   id="svg5"
   inkscape:version="1.2.1 (9c6d41e, 2022-07-14)"
   sodipodi:docname="social_poster.svg"
   xml:space="preserve"
   inkscape:export-filename="social_poster.png"
   inkscape:export-xdpi="96"
   inkscape:export-ydpi="96"
   xmlns:inkscape="http://www.inkscape.org/namespaces/inkscape"
   xmlns:sodipodi="http://sodipodi.sourceforge.net/DTD/sodipodi-0.dtd"
   xmlns:xlink="http://www.w3.org/1999/xlink"
   xmlns="http://www.w3.org/2000/svg"
   xmlns:svg="http://www.w3.org/2000/svg"><sodipodi:namedview
     id="namedview7"
     pagecolor="#ffffff"
     bordercolor="#000000"
     borderopacity="0.25"
     inkscape:showpageshadow="2"
     inkscape:pageopacity="0.0"
     inkscape:pagecheckerboard="0"
     inkscape:deskcolor="#d1d1d1"
     inkscape:document-units="px"
     showgrid="false"
     inkscape:zoom="0.63964844"
     inkscape:cx="401.00153"
     inkscape:cy="267.33435"
     inkscape:window-width="1920"
     inkscape:window-height="935"
     inkscape:window-x="0"
     inkscape:window-y="0"
     inkscape:window-maximized="1"
     inkscape:current-layer="layer1" /><defs
     id="defs2"><rect
       x="77.367939"
       y="248.54351"
       width="531.44428"
       height="120.4458"
       id="rect3416" /><rect
       x="77.367943"
       y="248.5435"
       width="528.2626"
       height="84.775567"
       id="rect3416-2" /><rect
       x="77.367943"
       y="248.5435"
       width="502.14352"
       height="97.435109"
       id="rect3416-2-7" /><rect
       x="77.367943"
       y="248.5435"
       width="520.52352"
       height="99.869532"
       id="rect3416-1" /><rect
       x="77.367943"
       y="248.5435"
       width="531.44427"
       height="120.4458"
       id="rect3416-22" /><rect
       x="547.03693"
       y="441.59482"
       width="496.48882"
       height="329.92045"
       id="rect8093" /><linearGradient
       inkscape:collect="always"
       id="linearGradient4406"><stop
         style="stop-color:#000000;stop-opacity:1"
         offset="0"
         id="stop4408" /><stop
         style="stop-color:#cccccc;stop-opacity:1"
         offset="1"
         id="stop4410" /></linearGradient><linearGradient
       inkscape:collect="always"
       id="linearGradient4392"><stop
         style="stop-color:#000000;stop-opacity:1"
         offset="0"
         id="stop4394" /><stop
         style="stop-color:#b3b3b3;stop-opacity:1"
         offset="1"
         id="stop4396" /></linearGradient><linearGradient
       inkscape:collect="always"
       id="linearGradient4203"><stop
         style="stop-color:#78482e;stop-opacity:1"
         offset="0"
         id="stop4205" /><stop
         style="stop-color:#ffffff;stop-opacity:1"
         offset="1"
         id="stop4207" /></linearGradient><linearGradient
       inkscape:collect="always"
       xlink:href="#linearGradient4392"
       id="linearGradient4398"
       x1="473.53198"
       y1="599.34668"
       x2="610.31689"
       y2="570.00214"
       gradientUnits="userSpaceOnUse" /><linearGradient
       inkscape:collect="always"
       xlink:href="#linearGradient4406"
       id="linearGradient4412"
       x1="420.22873"
       y1="728.63281"
       x2="614.35602"
       y2="434.27008"
       gradientUnits="userSpaceOnUse" /><filter
       inkscape:collect="always"
       style="color-interpolation-filters:sRGB"
       id="filter4303-3"
       x="-0.27575134"
       width="1.5515027"
       y="-0.27624912"
       height="1.5524982"><feGaussianBlur
         inkscape:collect="always"
         stdDeviation="3.968286"
         id="feGaussianBlur4305-6" /></filter><linearGradient
       inkscape:collect="always"
       xlink:href="#linearGradient4203"
       id="linearGradient4209-7"
       x1="308.98163"
       y1="255.25107"
       x2="324.32202"
       y2="252.72926"
       gradientUnits="userSpaceOnUse"
       gradientTransform="translate(-1070.7463,140.59992)" /><filter
       inkscape:collect="always"
       style="color-interpolation-filters:sRGB"
       id="filter4197-5"
       x="-0.021857147"
       width="1.0437143"
       y="-0.032162114"
       height="1.0643242"><feGaussianBlur
         inkscape:collect="always"
         stdDeviation="0.1169198"
         id="feGaussianBlur4199-6" /></filter><filter
       inkscape:collect="always"
       style="color-interpolation-filters:sRGB"
       id="filter4447"
       x="-0.049919996"
       width="1.09984"
       y="-0.028150377"
       height="1.0563008"><feGaussianBlur
         inkscape:collect="always"
         stdDeviation="1.430548"
         id="feGaussianBlur4449" /></filter><filter
       inkscape:collect="always"
       style="color-interpolation-filters:sRGB"
       id="filter4327-2"
       x="-0.06612521"
       width="1.1375942"
       y="-0.076646003"
       height="1.1533905"><feGaussianBlur
         inkscape:collect="always"
         stdDeviation="1.1393257"
         id="feGaussianBlur4329-9" /></filter><filter
       inkscape:collect="always"
       style="color-interpolation-filters:sRGB"
       id="filter4357-1"
       x="-0.084327962"
       width="1.172793"
       y="-0.083549186"
       height="1.1671349"><feGaussianBlur
         inkscape:collect="always"
         stdDeviation="2.0216352"
         id="feGaussianBlur4359-2" /></filter></defs><g
     inkscape:label="Background"
     inkscape:groupmode="layer"
     id="layer1"
     style="fill:#f4eed7"><rect
       style="fill:#f4eed7;stroke-width:0.999102"
       id="rect269"
       width="1198.2642"
       height="675.43701"
       x="1.6970563"
       y="-0.11227344" /><ellipse
       style="fill:#f4eed7;fill-opacity:1;stroke-width:0.551579"
       id="path9254-9"
       ry="7.230062"
       rx="7.3858562"
       cy="516.82489"
       cx="34.390221" /><text
       xml:space="preserve"
       style="font-style:normal;font-variant:normal;font-weight:normal;font-stretch:normal;font-size:32px;font-family:FreeMono;-inkscape-font-specification:FreeMono;fill:#f4eed7;fill-opacity:1"
       x="578.284"
       y="177.60001"
       id="text3567"><tspan
         sodipodi:role="line"
         id="tspan3565"
         x="578.284"
         y="177.60001">26th November, 2022</tspan></text></g><g
     inkscape:groupmode="layer"
     id="layer2"
     inkscape:label="Logo"><g
       inkscape:label="Layer 1"
       id="layer1-6"
       style="opacity:1"
       transform="matrix(0.80147416,0,0,0.80147416,56.318153,17.846964)"><path
         style="opacity:1;fill:#000000;fill-opacity:1;stroke:none;stroke-width:0.0867766"
         d="m 2.0328305,154.68786 12.6622975,0.38961 -2.14285,37.79208 -7.9869874,-0.1948 z"
         id="rect1373"
         inkscape:connector-curvature="0"
         sodipodi:nodetypes="ccccc" /><path
         inkscape:connector-curvature="0"
         style="opacity:1;fill:#000000;fill-opacity:1;stroke:none;stroke-width:0.0964233"
         d="m 4.3704857,194.72017 h 8.1817923 v 8.08439 H 4.3704857 Z"
         id="rect1376" /><path
         style="opacity:1;fill:#000000;fill-opacity:1;stroke:none;stroke-width:0.0964233"
         d="m 21.513343,154.78527 c 0,16.03892 0,32.07784 0,48.11675 9.188278,0 18.376556,0 27.564834,0 0,-3.44154 0,-6.88308 0,-10.32463 -5.03247,0 -10.064939,0 -15.097409,0 0,-12.59737 0,-25.19474 0,-37.79212 -4.155808,0 -8.311617,0 -12.467425,0 z"
         id="rect1378"
         inkscape:connector-curvature="0" /><path
         inkscape:connector-curvature="0"
         style="opacity:1;fill:#000000;fill-opacity:1;stroke:none;stroke-width:0.0964233"
         d="m 156.70765,175.82413 h 11.98048 v 5.84413 h -11.98048 z"
         id="rect1383" /><path
         style="opacity:1;fill:#000000;fill-opacity:1;stroke:none;stroke-width:0.0964233"
         d="m 190.10183,153.43271 c -5.02302,0.0287 -9.94424,0.0863 -14.98517,0.0863 v 49.38305 h 12.37006 c 26.304,1.79823 28.24677,-20.74673 28.24677,-22.98698 0,-14.73062 -8.34769,-26.48239 -25.63166,-26.48233 z m -2.61511,10.78397 c 12.23729,0.0557 15.84639,5.38325 15.84639,15.06747 0,1.40308 1.09593,13.07717 -15.84639,13.21056 z"
         id="rect1385"
         inkscape:connector-curvature="0"
         sodipodi:nodetypes="ccccsccscc" /><path
         style="opacity:1;fill:#000000;stroke:#000000;stroke-width:0.0964233px;stroke-linecap:butt;stroke-linejoin:miter;stroke-opacity:1"
         d="m 126.51294,175.72674 h 23.76616 c 0.72462,0.72462 1.43648,27.24808 -23.08435,27.46744 -24.25708,0.217 -25.07729,-22.51305 -25.32459,-24.83758 -0.25783,-2.42361 1.27217,-23.55828 24.10707,-24.39928 18.33877,-0.67541 22.06161,12.711 22.06161,12.711 l -11.68827,4.67531 c 0,0 -1.94804,-7.11037 -10.61685,-7.11037 -8.6688,0 -11.52652,8.88715 -11.29866,15.19475 0.21358,5.91244 3.07954,12.42848 11.59087,13.44152 8.99988,1.0712 10.64888,-7.8095 10.61685,-7.88959 h -10.22724 z"
         id="path1393"
         inkscape:connector-curvature="0"
         sodipodi:nodetypes="ccsssccsasccc" /><path
         style="fill:#ffcc00;stroke:none;stroke-width:0.0964233px;stroke-linecap:butt;stroke-linejoin:miter;stroke-opacity:1"
         d="m 61.901889,199.72414 c -3.144184,-3.41837 -4.600962,-8.22333 -3.853118,-12.81274 0.270098,-3.19455 0.335432,-6.41795 0.363689,-9.61806 -0.385421,-5.07947 -1.227126,-10.1778 -0.80075,-15.27846 0.163503,-2.8053 3.444578,-2.01537 5.254119,-1.46851 2.10201,0.57824 4.502583,0.49272 6.055991,-1.25238 1.977318,-1.33058 3.3051,-4.41127 5.89391,-4.33784 1.929134,1.66942 2.421164,4.38691 3.654849,6.53533 1.121535,2.51629 3.411326,5.18864 6.435701,4.89057 1.077025,-0.15633 4.639771,-1.74016 1.760311,-1.32449 -3.240751,-0.13697 -4.968489,-3.29965 -6.113115,-5.92096 -1.08372,-2.30768 -2.313498,-5.44392 -5.298667,-5.56702 -3.052604,-0.36054 -4.732787,2.70197 -6.835044,4.30732 -2.699773,1.97001 -5.909285,-0.18117 -8.85293,0.0219 -2.43659,-0.38202 -4.386887,1.65458 -4.552021,3.98192 -0.256215,3.88025 0.890601,7.68789 0.990988,11.56253 0.509507,5.81427 -0.141308,11.626 -0.325366,17.43425 0.08008,4.03027 1.492457,8.71153 5.442302,10.53372 2.332017,1.47692 5.360419,1.9165 7.855741,0.55786 4.708648,-2.37703 8.145749,-6.52836 11.924703,-10.09284 5.753391,-5.9095 11.72369,-12.15402 14.375656,-20.14485 0.907971,-2.39247 -0.202622,-5.17743 -1.970097,-6.87194 -1.650919,-1.7312 -3.778539,1.74335 -1.293616,2.22295 1.78647,1.72043 0.702699,4.5256 -0.280443,6.40408 -3.364246,6.28717 -8.299157,11.50819 -12.834062,16.94478 -2.758875,3.17075 -5.777767,6.12603 -9.006348,8.81195 -2.301015,1.8314 -5.459216,1.8381 -7.992383,0.48088 z"
         id="path1395"
         inkscape:connector-curvature="0" /><path
         style="fill:#000000;fill-rule:evenodd;stroke:none;stroke-width:0.773045"
         d="m 104.86704,38.84143 c -5.672805,1.072321 -10.198002,6.424985 -9.929332,12.26893 -0.55868,6.461082 0.21937,12.939603 0.43678,19.374969 -1.71955,7.254534 -8.795984,11.615964 -10.870904,18.760967 -1.51987,4.277524 -3.391257,8.415929 -5.313357,12.513404 -0.8326,2.8834 -0.62114,6.2717 3.105207,4.5108 4.57802,2.34141 6.893087,7.38932 9.855037,11.36194 2.593837,4.38607 7.101484,9.2713 4.987577,14.71503 -2.84555,4.01647 -8.548897,1.66377 -12.401854,0.67715 -4.852077,-1.5712 -10.019874,-2.0089 -14.796691,-3.77484 -2.00026,-3.0043 2.841457,-7.36738 -0.58603,-10.82734 -1.95929,-5.82642 8.382364,-1.17603 8.696514,-6.70421 0.66385,-4.14322 -2.120807,3.18124 -4.867197,2.09319 -4.207677,-0.66086 -6.336387,2.75345 -4.353077,6.43322 1.00955,3.99997 -4.306957,10.55835 2.788387,11.20018 5.665677,1.05482 11.296264,2.2919 16.686931,4.38228 4.19252,2.31678 8.198787,-0.25914 11.635802,-2.55707 5.122467,-1.7713 10.734097,-1.23509 16.082587,-1.4163 5.2633,-1.37039 6.91679,4.8749 11.47259,5.00357 4.91524,1.16341 8.05382,-3.02331 11.63493,-5.50303 3.79483,-2.89923 9.20649,-3.85104 11.92703,-7.98494 -0.69837,-4.74856 -8.74799,-5.64774 -7.91191,-11.77188 -1.89805,1.80916 0.42812,8.50908 4.66649,9.08175 6.16857,3.31999 -2.96142,6.08514 -5.92819,7.13051 -4.80724,1.46596 -7.84191,6.65358 -13.08758,6.82411 -5.47723,-0.81569 -4.30061,-7.59554 -3.86921,-11.55332 0.82541,-4.60522 -2.40781,-9.2686 -0.2098,-13.66713 3.84985,-2.73209 4.94582,7.63449 10.0629,4.46436 3.34301,-2.33851 7.88982,-5.24229 8.12362,-9.70272 -0.2924,-8.840473 -4.00578,-17.452481 -9.43056,-24.360753 -6.17791,-6.417097 -9.06908,-15.390724 -8.71299,-24.206896 -0.0269,-7.905692 -5.67572,-15.836003 -13.83182,-16.811438 -2.00618,-0.312661 -4.05912,-0.27101 -6.06178,0.04542 m 11.94199,6.218378 c 2.57862,1.67772 -5.36237,3.976038 -2.33138,0.269035 -0.16843,-1.775563 1.64687,-0.954958 2.33153,-0.269092 m -2.17305,7.924472 c 3.45848,1.016859 5.07356,10.972866 0.46011,8.750221 2.73343,-3.832672 -3.92699,-8.722542 -4.88655,-3.171148 -1.18921,5.705422 9.73264,3.263909 7.06409,9.398773 -0.1845,2.044275 -0.40838,4.152842 1.20362,5.686336 2.94908,3.509253 2.83676,8.500775 5.78415,11.96721 2.7368,5.065077 2.74747,10.931173 3.31522,16.499592 3.76175,4.69343 6.72256,-4.215898 4.86441,-7.509667 -0.6164,-4.604 -3.40726,-8.740767 -5.26884,-12.657359 5.56804,5.051689 7.76268,13.315283 6.17147,20.570056 0.74725,0.93365 4.63421,3.47198 0.97219,1.94856 -4.85477,-2.23895 -7.28074,2.88078 -10.64323,4.66305 -1.97169,5.21638 1.06524,10.75574 -0.55217,16.04719 0.0949,1.75944 -1.74488,8.58983 -2.32895,3.72975 0.4219,-1.98994 3.14238,-9.01977 -0.0738,-8.15207 -3.6328,5.39186 -10.81631,6.71191 -16.81288,5.50486 -1.36758,-0.90519 -6.372652,-3.16792 -3.58623,0.24232 2.46812,1.99283 -0.716567,8.17256 -0.488357,2.91789 0.317657,-3.31211 -5.986625,-6.8896 -0.923238,-8.18503 2.707095,-4.83308 -4.533407,-7.15624 -7.071494,-10.11615 -3.56182,-2.928 -7.927677,-6.08925 -7.976997,-11.198137 -0.40899,-2.307228 1.71339,-6.23951 1.04867,-1.607041 -1.18365,2.400768 3.209707,10.445388 3.603547,4.498168 -0.0409,-6.415259 1.70628,-13.078573 5.942247,-18.01629 -1.53095,-4.843436 2.9331,-8.725341 3.459327,-13.340587 2.288165,3.226766 6.212415,7.965165 10.216715,3.381838 1.42301,-1.784256 7.81269,-3.636271 6.29176,-5.156132 -4.07457,1.228737 -8.67477,5.725479 -12.8647,2.586712 -2.561465,-2.849579 5.01,-0.162725 6.32529,-2.027578 1.92147,-1.511462 8.09324,-1.662673 7.42808,-4.266465 -3.85581,2.696605 -8.95803,4.343854 -13.7408,3.733373 -3.473145,-1.27737 -6.262732,-5.661828 -1.17871,-7.193626 4.07525,-1.4567 0.57279,-9.598672 -1.966585,-4.844005 -1.103847,2.043049 3.561495,6.143161 -0.41146,4.120784 -2.408787,-3.199816 0.74073,-12.100933 4.658825,-7.08722 1.88651,1.358965 -0.13483,6.082966 2.94136,5.437498 4.87572,1.52828 0.42824,-7.152174 5.7089,-7.281879 1.06146,-0.459045 2.29163,-0.423622 3.31325,0.125927 m -0.3726,4.314362 c 2.19361,4.615064 -3.4712,-2.014035 -9e-5,8.9e-5 m -13.07099,0.40437 c 1.91121,6.858203 -2.535615,-2.653466 10e-4,0 m 1.20751,3.781732 c -1.09326,1.82642 1.4293,-0.730805 -1.5e-4,1.49e-4 m 5.24897,0.02631 c 1.32922,0.989803 0.54869,-0.903401 0,0 z m 14.25032,6.971308 c 2.72497,0.213682 3.67838,5.033663 0.37496,2.776307 -1.1912,-0.200929 -2.46009,-4.759426 -0.37496,-2.776307 z M 89.223991,86.004111 c 0.144,2.252666 -3.432727,3.305959 -0.9895,0.597558 -0.0166,-0.249622 1.01762,-1.902763 0.9895,-0.597558 z"
         id="path0"
         inkscape:connector-curvature="0" /></g></g><g
     inkscape:groupmode="layer"
     id="layer3"
     inkscape:label="Header"><text
       xml:space="preserve"
       style="font-size:42.6667px;fill:#ffcc00;fill-opacity:1"
       x="370.72067"
       y="80.247635"
       id="text509"><tspan
         sodipodi:role="line"
         id="tspan507"
         x="370.72067"
         y="80.247635"
         style="font-style:normal;font-variant:normal;font-weight:normal;font-stretch:normal;font-size:42.6667px;font-family:FreeMono;-inkscape-font-specification:FreeMono;fill:#ffcc00;fill-opacity:1"><tspan
   style="fill:#000000"
   id="tspan2495">India</tspan> <tspan
   style="font-weight:bold"
   id="tspan2499">Linux</tspan> <tspan
   style="fill:#000000"
   id="tspan2497">Users Group Delhi</tspan></tspan></text><text
       xml:space="preserve"
       style="font-style:normal;font-variant:normal;font-weight:normal;font-stretch:normal;font-size:74.6667px;font-family:FreeMono;-inkscape-font-specification:FreeMono;fill:#5fd38d;fill-opacity:1"
       x="478.66257"
       y="149.94099"
       id="text1445"><tspan
         sodipodi:role="line"
         id="tspan1443"
         x="478.66257"
         y="149.94099"
         style="font-weight:bold;font-size:74.6667px;fill:#5fd38d;fill-opacity:1">INSTALL FEST</tspan></text></g><g
     inkscape:groupmode="layer"
     id="layer4"
     inkscape:label="Info"><text
       xml:space="preserve"
       id="text3414"
       style="font-style:normal;font-variant:normal;font-weight:normal;font-stretch:normal;font-size:32px;font-family:FreeMono;-inkscape-font-specification:FreeMono;white-space:pre;shape-inside:url(#rect3416);display:inline;fill:#000000;fill-opacity:1"
       inkscape:label="messsage1"
       transform="translate(-21.614389,-13.364131)"><tspan
         x="77.367188"
         y="278.14297"
         id="tspan13424">Bring your Computer and </tspan><tspan
         x="77.367188"
         y="318.14297"
         id="tspan13426">let's install Linux on it !</tspan></text><text
       xml:space="preserve"
       id="text3414-2"
       style="font-style:normal;font-variant:normal;font-weight:normal;font-stretch:normal;font-size:32px;font-family:FreeMono;-inkscape-font-specification:FreeMono;white-space:pre;shape-inside:url(#rect3416-22);display:inline;fill:#000000;fill-opacity:1"
       inkscape:label="messsage2"
       transform="translate(-18.880503,90.287673)"><tspan
         x="77.367188"
         y="278.14297"
         id="tspan13428">Enjoy talks from linux </tspan><tspan
         x="77.367188"
         y="318.14297"
         id="tspan13430">experts and engage with the </tspan><tspan
         x="77.367188"
         y="358.14297"
         id="tspan13432">local linux community!</tspan></text><text
       xml:space="preserve"
       style="font-style:normal;font-variant:normal;font-weight:normal;font-stretch:normal;font-size:32px;font-family:FreeMono;-inkscape-font-specification:FreeMono;fill:#5fd38d;fill-opacity:1"
       x="30.705427"
       y="531.57275"
       id="text5283-6"
       inkscape:label="venue"><tspan
         sodipodi:role="line"
         id="tspan5281-9"
         x="30.705427"
         y="531.57275"
         style="font-weight:bold;fill:#5fd38d;fill-opacity:1">Date: <tspan
   style="font-weight:normal;fill:#000000"
   id="tspan12998">26th Nov, 2022</tspan></tspan></text><ellipse
       style="fill:#5fd38d;fill-opacity:1;stroke-width:0.551579"
       id="path9254"
       ry="7.230062"
       rx="7.3858562"
       cy="256.78445"
       cx="33.902763" /><ellipse
       style="fill:#5fd38d;fill-opacity:1;stroke-width:0.551579"
       id="path9254-7"
       ry="7.230062"
       rx="7.3858562"
       cy="361.64569"
       cx="34.446358" /></g><g
     inkscape:groupmode="layer"
     id="layer5"
     inkscape:label="art"><g
       id="g9248"
       transform="matrix(1.00003,0,0,0.91220271,648.00495,186.47006)"><g
         inkscape:label="Background"
         id="layer1-1"
         style="fill:#5fd38d"><path
           style="fill:#5fd38d;stroke-width:0.264583"
           d="M 9.4986203,88.74401 C 9.0925793,-14.196787 117.68021,-12.45564 182.11193,-9.5913262 291.60249,6.8764172 398.06202,0.40182507 459.13192,41.888042 c 92.26271,65.475358 35.042,145.181458 42.82499,222.295208 4.41795,71.20907 32.60578,100.94911 5.91738,185.57497 C 452.76366,551.21511 336.08826,460.1939 224.39971,475.524 183.50429,474.34377 95.549384,502.2438 53.246503,464.81933 8.877793,410.78346 3.8738618,354.80887 10.064956,267.26062"
           id="path5586"
           sodipodi:nodetypes="cccccccc" /></g><g
         id="layer13"
         inkscape:label="Window_with_tux"><g
           id="g5959"
           inkscape:label="window_pane"
           inkscape:groupmode="layer"
           transform="rotate(-11.76004,211.59571,167.70118)"><rect
             style="fill:#00a4ef;fill-opacity:1;stroke-width:0.264583"
             id="rect5737"
             width="164.70799"
             height="153.28967"
             x="27.946562"
             y="78.044769"
             transform="rotate(-10.31578)" /><rect
             style="fill:#ffffff;stroke-width:0.264583"
             id="rect5737-0"
             width="145.19022"
             height="133.48039"
             x="37.55138"
             y="87.124878"
             transform="rotate(-10.31578)" /><rect
             style="fill:#00a4ef;fill-opacity:1;stroke-width:0.264583"
             id="rect5874"
             width="4.8452759"
             height="136.46117"
             x="108.80312"
             y="85.517662"
             transform="rotate(-10.31578)" /><rect
             style="fill:#00a4ef;fill-opacity:1;stroke-width:0.27542"
             id="rect5874-3"
             width="4.8452759"
             height="147.86839"
             x="151.73561"
             y="-184.12724"
             transform="rotate(79.684221)" /></g><g
           inkscape:groupmode="layer"
           id="layer8"
           inkscape:label="tux"><path
             style="fill:#11002b;fill-opacity:1;stroke-width:0.264583"
             d="m 85.665236,228.29268 c -7.717597,2.11875 -13.857109,9.45355 -21.071918,15.42258 -3.364771,1.73111 -6.336418,1.19201 -9.159052,-0.2076 -3.882124,-3.94941 -2.483242,-7.2343 0.06036,-10.37515 8.489016,-6.72012 16.55223,-13.86604 29.245359,-16.38205 3.778539,-10.69261 -0.202857,-15.06034 -2.101679,-18.67661 -4.049301,-9.67808 -1.735555,-12.91185 -1.424624,-16.72528 0.889864,-3.43436 4.574815,-9.34386 10.079522,-11.84958 9.023726,-4.49561 9.819276,-5.20727 18.912896,-5.2288 10.63785,1.1617 14.04573,3.53139 16.65579,9.37266 2.93186,8.75185 2.42475,10.65977 2.9269,17.92279 -0.26546,7.14833 -3.67512,15.41987 -3.09768,18.10021 11.17166,5.54411 25.22927,6.00617 33.51497,16.63234 8.25772,9.38117 3.95756,15.84865 1.12299,17.53605 -6.52921,0.6866 -10.1402,-2.89204 -16.9441,-7.38395 -11.23852,-9.5193 -16.05108,-9.15521 -21.0109,-15.10043 l -3.1978,2.82236 -32.261549,12.85063 c -0.220403,-2.27648 -0.90428,-4.09451 -1.547736,-6.7673"
             id="path7376"
             sodipodi:nodetypes="ccccccccccccccccccc" /><ellipse
             style="fill:#ffffff;fill-opacity:1;stroke-width:0.312364"
             id="path7647"
             cx="96.455666"
             cy="187.98433"
             rx="5.6576023"
             ry="9.882308" /><ellipse
             style="fill:#000000;fill-opacity:1;stroke-width:0.209227"
             id="path7647-6"
             cx="96.694534"
             cy="190.99588"
             rx="3.6034043"
             ry="6.9613056" /><ellipse
             style="fill:#ffffff;fill-opacity:1;stroke-width:0.314948"
             id="path7649"
             cx="115.51148"
             cy="189.27417"
             rx="5.5740113"
             ry="10.146718" /><ellipse
             style="fill:#000000;fill-opacity:1;stroke-width:0.240948"
             id="path7649-8"
             cx="114.99718"
             cy="192.69896"
             rx="3.7251961"
             ry="8.8860788" /><path
             style="fill:#ffcc00;fill-opacity:1;stroke-width:0.264583"
             d="m 88.423014,172.216 c 1.429248,-1.40432 3.755227,-2.20386 11.081368,-0.0506 5.824968,1.24193 10.717098,3.37734 14.359168,6.7101 -1.22374,4.01211 -2.26556,3.67415 -6.20625,7.22299 -4.22539,2.66853 -6.30747,2.57878 -10.718513,3.59657 -5.343434,-4.56836 -12.057042,-8.2149 -8.515773,-17.47906 z"
             id="path7486"
             transform="rotate(-11.76004,211.59571,167.70119)"
             sodipodi:nodetypes="cccccc" /><ellipse
             style="fill:#000000;fill-opacity:1;stroke-width:0.264583"
             id="path7786"
             cx="101.89959"
             cy="199.02147"
             rx="1.0909591"
             ry="1.3578097" /><ellipse
             style="fill:#000000;fill-opacity:1;stroke-width:0.264583"
             id="path7786-6"
             cx="105.8867"
             cy="199.0266"
             rx="1.0909591"
             ry="1.3578097" /></g><g
           inkscape:groupmode="layer"
           id="layer9"
           inkscape:label="tux_message"><path
             style="fill:#ffe6d5;fill-opacity:1;stroke-width:0.264583"
             d="m 137.41962,186.69534 12.4231,-14.35619 c 13.10379,7.89701 28.24363,8.17197 46.19718,-2.08622 20.93485,-13.37626 37.7152,-15.08726 54.23878,-16.07729 11.86866,-5.152 25.58634,-8.80188 10.05272,-36.21514 -1.35199,-29.383248 -21.25456,-27.468069 -40.59516,-26.501025 -28.20577,0.763213 -56.70688,-0.05988 -81.34933,19.841915 -15.21894,19.43456 -9.18649,36.77832 4.86294,53.33332 z"
             id="path7818"
             sodipodi:nodetypes="ccccccccc" /><text
             xml:space="preserve"
             style="font-size:8.46667px;font-family:FreeMono;-inkscape-font-specification:FreeMono;fill:#deaa87;fill-opacity:1;stroke-width:0.264583"
             x="149.89572"
             y="124.47093"
             id="text8036"><tspan
               id="tspan8034"
               style="stroke-width:0.264583"
               sodipodi:role="line"
               x="149.89572"
               y="124.47093" /></text><text
             xml:space="preserve"
             transform="matrix(0.26458333,0,0,0.26458333,16.030179,-18.792176)"
             id="text8091"
             style="font-size:192px;font-family:FreeMono;-inkscape-font-specification:FreeMono;white-space:pre;shape-inside:url(#rect8093);display:inline;fill:#ffcc00;fill-opacity:1"><tspan
               x="547.03711"
               y="619.1957"
               id="tspan13436"><tspan
                 style="font-weight:bold"
                 id="tspan13434">Hi!</tspan></tspan></text></g></g><g
         id="layer14"
         inkscape:label="Desk"><g
           inkscape:groupmode="layer"
           id="layer10"
           inkscape:label="desk"><path
             style="fill:#501616;fill-opacity:1;stroke-width:0.264583"
             d="M 81.964743,320.66248 406.83793,181.35539 489.31504,265.81123 135.30837,412.69761 Z"
             id="path8161" /></g><g
           inkscape:groupmode="layer"
           id="layer11"
           inkscape:label="laptop"
           transform="translate(82.929311,-15.244156)"><path
             style="fill:#b3b3b3;fill-opacity:1;stroke-width:0.264583"
             d="m 137.36771,310.70087 30.84865,-40.67832 19.09406,38.06526 42.6095,-2.7692 -35.47616,55.35935 -42.83645,-6.90952 -19.34807,-34.39345 z"
             id="path8434" /><path
             style="fill:#ffffff;fill-opacity:1;stroke-width:0.264583"
             d="m 168.00711,274.51888 -32.86518,44.79989 15.36915,27.86705 32.32591,-40.04953 z"
             id="path8490" /><text
             xml:space="preserve"
             style="font-size:35.7176px;font-family:FreeMono;-inkscape-font-specification:FreeMono;fill:#ff0000;fill-opacity:1;stroke-width:0.186029"
             x="-73.139153"
             y="359.25082"
             id="text8923"
             transform="matrix(0.81684327,-0.58617381,0.60731098,0.78841343,0,0)"><tspan
               sodipodi:role="line"
               id="tspan8921"
               style="stroke-width:0.186029"
               x="-73.139153"
               y="359.25082">?</tspan></text></g></g><g
         id="layer15"
         inkscape:label="Person"
         transform="translate(11.183054,-36.180958)"><g
           inkscape:label="Layer 1"
           id="layer1-5"
           transform="matrix(0.28222223,0,0,0.28222223,240.66278,225.30601)"><path
             style="fill:url(#linearGradient4412);fill-opacity:1;fill-rule:evenodd;stroke:#000000;stroke-width:1px;stroke-linecap:butt;stroke-linejoin:miter;stroke-opacity:1"
             d="m 421.82824,735.99102 -7.33614,-6.41912 9.17018,-11.92123 1.83403,0.91701 165.98024,-257.68203 c 0,0 11.08636,-21.31091 21.09141,-26.59352 3.79396,-2.00319 12.83826,-0.91702 12.83826,-0.91702 z"
             id="path4402"
             inkscape:connector-curvature="0"
             sodipodi:nodetypes="cccccscc" /><path
             style="fill:#000000;fill-rule:evenodd;stroke:#000000;stroke-width:1px;stroke-linecap:butt;stroke-linejoin:miter;stroke-opacity:1"
             d="m 568.55111,536.99814 7.33614,25.6765 34.84668,175.15042 -3.66807,0.91702 1.83403,11.92123 8.25317,-0.91702 5.5021,-1.83403 -2.75105,-13.75527 h -2.75105 l -35.7637,-201.74394 -4.58509,-7.33615 z"
             id="path4390"
             inkscape:connector-curvature="0" /><path
             style="fill:url(#linearGradient4398);fill-opacity:1;fill-rule:evenodd;stroke:#000000;stroke-width:1px;stroke-linecap:butt;stroke-linejoin:miter;stroke-opacity:1"
             d="m 422.74526,591.10219 -1.83404,8.25317 4.58509,2.75105 3.66807,8.25316 164.14621,12.83825 12.83825,-7.33614 v -3.66807 l 5.50211,-2.75106 c 7.36355,-13.14392 4.74014,-26.28785 0,-39.43177 L 447.50474,553.50446 Z"
             id="path4384"
             inkscape:connector-curvature="0"
             sodipodi:nodetypes="ccccccccccc" /><path
             style="fill:#000000;fill-rule:evenodd;stroke:#000000;stroke-width:1px;stroke-linecap:butt;stroke-linejoin:miter;stroke-opacity:1"
             d="m 543.79162,568.17675 17.42334,8.25316 46.76792,228.33746 -1.83404,1.83403 v 13.75527 h 11.92123 l 4.58509,-2.75105 -2.75105,-14.67229 h -3.66807 L 568.55111,566.34271 555.71286,555.3385 Z"
             id="path4388"
             inkscape:connector-curvature="0" /><path
             style="fill:#b3b3b3;fill-rule:evenodd;stroke:#000000;stroke-width:1px;stroke-linecap:butt;stroke-linejoin:miter;stroke-opacity:1"
             d="m 599.72972,681.88697 -6.41913,16.50632 2.75105,10.0872 8.25316,-22.92545 z"
             id="path4400"
             inkscape:connector-curvature="0" /><path
             style="fill:#000000;fill-rule:evenodd;stroke:#000000;stroke-width:1px;stroke-linecap:butt;stroke-linejoin:miter;stroke-opacity:1"
             d="M 609.81691,609.44255 430.0814,598.43834 v 5.50211 l 175.15042,13.75526 z"
             id="path4404"
             inkscape:connector-curvature="0" /><path
             style="fill:none;fill-rule:evenodd;stroke:#ffffff;stroke-width:1px;stroke-linecap:butt;stroke-linejoin:miter;stroke-opacity:1"
             d="m 427.33035,602.10641 64.19125,6.41912"
             id="path4414"
             inkscape:connector-curvature="0" /><g
             id="g5039"
             transform="translate(1066.902,-135.86535)"><path
               inkscape:connector-curvature="0"
               id="path4361-7"
               d="m -807.56213,869.2548 -18.34036,-0.91702 -11.92123,-4.58509 -12.83825,-11.00421 -0.91702,-2.75105 9.17018,-12.83826 8.25316,-1.83403 h 18.34036 l 10.0872,-0.91702 11.00421,11.92123 z"
               style="fill:#37302b;fill-opacity:1;fill-rule:evenodd;stroke:#000000;stroke-width:1px;stroke-linecap:butt;stroke-linejoin:miter;stroke-opacity:1" /><path
               sodipodi:nodetypes="cccccccsccccccssccsssscscccsssssssscc"
               inkscape:connector-curvature="0"
               id="path3347-0"
               d="m -803.59328,920.6217 h -6.4843 l 1.29686,-36.31206 v -16.85917 l 6.4843,-72.62411 1.29686,-45.39007 5.18743,-32.42148 c 0,0 4.25234,-26.49393 9.07802,-38.90578 2.87568,-7.39636 11.67173,-20.74974 11.67173,-20.74974 l 16.27033,-25.79335 5.33126,13.26977 6.92931,8.633 12.96859,-2.59372 15.56231,-2.59372 c 0,0 43.1619,-7.81928 64.84296,-6.48429 23.44669,1.4437 46.68411,7.45957 68.73354,15.56231 20.14531,7.40302 79.07023,11.4874 79.07023,11.4874 l -19.41471,39.09011 c 0,0 -22.25928,15.50803 -35.0152,19.45288 -17.83516,5.51564 -37.11645,4.32194 -55.76494,5.18744 -12.52283,0.5812 -25.07261,0 -37.60892,0 -8.64573,0 -17.54959,2.0969 -25.93718,0 -7.12945,-1.78236 -19.45289,-10.37487 -19.45289,-10.37487 0,0 -4.67512,4.92313 -7.78115,5.18743 -4.2422,0.36098 -11.67174,-5.18743 -11.67174,-5.18743 l -1.29686,3.89057 5.18744,9.07802 c 0,0 -5.16214,16.42293 -3.89058,24.64032 0.8869,5.73152 5.77676,9.76508 5.94712,15.56231 0.19341,6.58155 -5.53063,11.58482 -5.94712,18.15603 -0.39813,6.28158 5.08258,11.86272 5.18744,18.15603 0.14847,8.91057 -7.04498,17.04302 -6.4843,25.93718 0.52526,8.3323 9.69633,15.01756 9.07802,23.34347 -0.51622,6.95127 -10.18147,11.1883 -10.37487,18.15603 -0.24138,8.69624 4.75319,14.65821 5.2526,23.34346 0.29046,5.05144 1.23169,14.26545 1.23169,14.26545 -29.82776,11.8029 -59.65552,9.18431 -89.48328,3.89058 z"
               style="fill:#14202c;fill-opacity:1;fill-rule:evenodd;stroke:#000000;stroke-width:1px;stroke-linecap:butt;stroke-linejoin:miter;stroke-opacity:1" /><path
               sodipodi:nodetypes="ccccccssssscccccccccsscccsccccccscsccccscccc"
               inkscape:connector-curvature="0"
               id="path3349-9"
               d="m -776.20191,498.84129 -1.45419,34.01952 -2.05654,4.96493 5.94712,76.7372 13.88561,33.86217 8.161,9.90277 c 0,0 6.99584,7.78115 11.67173,7.78115 3.11726,0 9.761,-2.10016 12.36624,-3.8119 8.17765,-5.37302 9.29339,-6.66289 20.05524,-11.32997 17.05833,-7.39767 37.25516,-3.05767 55.76494,-1.29686 16.29065,1.54971 32.45728,5.20627 47.98379,10.37487 21.65694,7.20935 62.24924,19.36072 62.24924,19.36072 l 19.45289,15.56231 15.56231,-20.74974 v -33.71834 l -15.56231,-41.49949 -12.96859,-24.64033 -15.56231,-50.57751 -25.93719,-64.84296 -20.74974,-23.34346 c 0,0 -14.50693,-13.78696 -23.34347,-18.15603 -7.61332,-3.76427 -16.15504,-6.84811 -24.64032,-6.48429 -6.4205,0.27529 -18.15603,6.48429 -18.15603,6.48429 l -7.78116,-3.89058 -41.49949,45.39007 c 0,0 -2.13971,6.93831 0,9.07802 1.52836,1.52836 6.4843,0 6.4843,0 v 2.59372 l 7.78115,-1.29686 9.07802,12.96859 v 9.07801 l -12.9686,18.15603 c 0,0 -6.29722,4.42666 -7.78115,7.78116 -3.6767,8.31138 -1.29686,27.23404 -1.29686,27.23404 0,0 -7.32869,2.17305 -9.07801,5.18744 -1.08488,1.86944 0,6.48429 0,6.48429 l -15.56231,14.26545 -5.18744,-20.74974 -2.59372,-14.26545 c 0,0 3.08992,-3.31896 2.59372,-5.18744 -0.40005,-1.50642 -3.89058,-2.59372 -3.89058,-2.59372 l 2.59372,-23.34346 3.89058,-3.89058 z"
               style="fill:#333333;fill-rule:evenodd;stroke:#000000;stroke-width:1px;stroke-linecap:butt;stroke-linejoin:miter;stroke-opacity:1" /><path
               sodipodi:nodetypes="cscscscsccccccccc"
               inkscape:connector-curvature="0"
               id="path3353-3"
               d="m -776.35924,378.53457 c 0,0 1.23944,12.60058 4.57834,17.81214 0.8818,1.37635 3.23878,3.28148 3.23878,3.28148 l -7.43728,23.15692 c -1.04861,3.26498 9.99503,2.43639 9.99503,2.43639 0,0 0.64651,7.72188 2.82297,9.99503 0.9454,0.98739 3.66133,0.37984 3.66133,0.37984 0,0 -2.44751,1.81034 -2.24984,3.16011 0.50688,3.46127 7.43728,8.51162 7.43728,8.51162 l 9.07801,6.4843 16.85917,-6.4843 18.15603,7.78116 32.42148,-31.12462 -11.67173,-70.0304 -59.65553,-1.29686 -25.93718,19.45289 z"
               style="fill:#b0704b;fill-opacity:1;fill-rule:evenodd;stroke:#000000;stroke-width:0.5;stroke-linecap:butt;stroke-linejoin:miter;stroke-opacity:1" /><path
               sodipodi:nodetypes="ccccscscscscsssccc"
               inkscape:connector-curvature="0"
               id="path3351-6"
               d="m -775.131,499.00746 -1.53872,-14.50654 1.53872,-17.78242 2.49743,-7.78389 c 0,0 0.97164,-4.31785 2.57317,-5.49054 2.37536,-1.7393 8.66524,-0.99603 8.66524,-0.99603 0,0 5.4446,-5.8424 8.741,-5.18925 2.61804,0.51874 4.99484,6.48657 4.99484,6.48657 0,0 6.25718,-7.75379 9.98972,-6.48657 2.13063,0.72335 3.82188,3.73455 3.82188,3.73455 0,0 6.02412,-4.38178 8.37525,-2.59462 4.40848,3.35098 -1.91743,14.27045 -1.91743,14.27045 0,0 7.96026,-1.31356 9.6997,1.4547 1.92659,3.06611 -2.61337,6.97077 -3.20956,10.37851 -0.63384,3.62294 -1.36099,7.57878 -3.74614,10.37851 -4.62893,5.43353 -15.52113,10.37851 -15.52113,10.37851 l -3.30466,5.26796 z"
               style="fill:#b0704b;fill-opacity:1;fill-rule:evenodd;stroke:#000000;stroke-width:0.5;stroke-linecap:butt;stroke-linejoin:miter;stroke-opacity:1" /><path
               inkscape:connector-curvature="0"
               id="path3357-0"
               d="m -703.9391,399.28312 2.29254,-8.25316 3.66807,3.20956 -1.83403,1.37553 z"
               style="fill:#65250e;fill-opacity:1;fill-rule:evenodd;stroke:none;stroke-width:1px;stroke-linecap:butt;stroke-linejoin:miter;stroke-opacity:1" /><path
               inkscape:connector-curvature="0"
               id="path3359-6"
               d="m -700.27103,385.98636 h 5.0436 l 2.75105,5.0436 -3.66807,-1.83404 h -3.20957 z"
               style="fill:#65250e;fill-opacity:1;fill-rule:evenodd;stroke:none;stroke-width:1px;stroke-linecap:butt;stroke-linejoin:miter;stroke-opacity:1" /><path
               inkscape:connector-curvature="0"
               id="path3361-2"
               d="m -698.89551,382.7768 h -2.75105 v -4.58509 l 4.12658,-3.20956 4.12658,2.29254 4.58509,7.79465 1.83404,6.87764 -2.29255,6.41912 -3.66807,1.83404 1.37553,-3.66807 1.83403,-7.33615 -2.29254,-8.25316 -4.58509,-4.12658 h -3.20956 v 3.20956 z"
               style="fill:#800000;fill-opacity:1;fill-rule:evenodd;stroke:none;stroke-width:1px;stroke-linecap:butt;stroke-linejoin:miter;stroke-opacity:1" /><path
               sodipodi:nodetypes="csssssscccc"
               inkscape:connector-curvature="0"
               id="path3363-6"
               d="m -732.36666,448.34358 c 0,0 9.71699,-8.18737 15.1308,-11.46272 2.45688,-1.48641 5.72131,-1.68138 7.79465,-3.66808 2.61608,-2.50676 1.51914,-8.7885 5.0436,-9.62868 2.55782,-0.60974 5.62793,2.07744 6.41912,4.58508 0.82905,2.62761 -2.02052,5.13797 -2.75105,7.79466 -0.8265,3.0057 -1.52687,6.06809 -1.83404,9.17018 -0.0904,0.91255 0,2.75105 0,2.75105 l -8.71167,10.0872 -12.83825,-8.71167 z"
               style="fill:#4a2e1d;fill-opacity:1;fill-rule:evenodd;stroke:none;stroke-width:1px;stroke-linecap:butt;stroke-linejoin:miter;stroke-opacity:1;filter:url(#filter4303-3)" /><path
               sodipodi:nodetypes="ccssscsc"
               inkscape:connector-curvature="0"
               id="path3365-1"
               d="m -768.58887,394.69803 1.09494,-6.71167 c 0,0 4.75777,-3.86302 7.15822,-4.58509 2.05424,-0.61792 4.27533,-1.61796 6.41913,-1.54149 1.98561,0.0708 3.98561,-0.2168 5.96062,0 1.40067,0.15375 4.12658,0.91702 4.12658,0.91702 -7.58872,1.19443 -14.81335,4.24757 -21.34103,9.28381 -3.41846,2.63742 -2.29028,1.71304 -3.41846,2.63742 z"
               style="fill:#382317;fill-opacity:1;fill-rule:evenodd;stroke:none;stroke-width:1px;stroke-linecap:butt;stroke-linejoin:miter;stroke-opacity:1" /><path
               sodipodi:nodetypes="cssc"
               inkscape:connector-curvature="0"
               id="path3367-8"
               d="m -746.58044,387.36189 c 0,0 -4.96371,0.62605 -7.33614,1.37552 -1.76095,0.5563 -3.47962,1.31052 -5.0436,2.29255 -1.01092,0.63476 -2.75105,2.29254 -2.75105,2.29254"
               style="fill:none;fill-rule:evenodd;stroke:#000000;stroke-width:0.75;stroke-linecap:butt;stroke-linejoin:miter;stroke-opacity:1" /><path
               inkscape:connector-curvature="0"
               id="path3369-7"
               d="m -758.04316,398.82461 5.0436,-0.45851 6.87763,-5.5021 -7.79465,1.37552 -7.33614,1.37553 z"
               style="fill:url(#linearGradient4209-7);fill-opacity:1;fill-rule:evenodd;stroke:#000000;stroke-width:0.5;stroke-linecap:butt;stroke-linejoin:miter;stroke-opacity:1" /><path
               sodipodi:nodetypes="csscc"
               inkscape:connector-curvature="0"
               id="path3371-9"
               d="m -756.24121,395.11264 c 0,0 -0.5072,1.4958 0,1.99924 0.71728,0.71198 2.28153,0.83724 3.25123,0.39984 1.22659,-0.55327 1.85785,-3.19877 1.85785,-3.19877 z"
               style="fill:#000000;fill-rule:evenodd;stroke:#000000;stroke-width:0.939883px;stroke-linecap:butt;stroke-linejoin:miter;stroke-opacity:1" /><path
               sodipodi:nodetypes="csscc"
               inkscape:connector-curvature="0"
               id="path3373-2"
               d="m -758.50167,399.28312 c 0,0 0.74011,1.87107 2.29254,2.58509 1.14502,0.52664 2.6263,-0.20772 3.66808,-0.91702 3.2603,-2.2198 6.87763,-7.62869 6.87763,-7.62869 -3.67501,3.07481 -7.64825,5.6128 -12.83825,5.96062 z"
               style="fill:#78482e;fill-opacity:1;fill-rule:evenodd;stroke:none;stroke-width:1px;stroke-linecap:butt;stroke-linejoin:miter;stroke-opacity:1;filter:url(#filter4197-5)" /><path
               sodipodi:nodetypes="cssc"
               inkscape:connector-curvature="0"
               id="path3375-0"
               d="m -759.76257,435.84921 c 0,0 1.44785,-2.34411 2.63643,-2.86569 1.39954,-0.61415 3.12743,-0.45948 4.58509,10e-6 0.88965,0.28044 2.29254,1.60478 2.29254,1.60478"
               style="fill:none;fill-rule:evenodd;stroke:#000000;stroke-width:0.75;stroke-linecap:butt;stroke-linejoin:miter;stroke-opacity:1" /><path
               sodipodi:nodetypes="sssss"
               inkscape:connector-curvature="0"
               id="path4201-2"
               d="m -771.45455,423.12559 c 0.11196,-1.09442 2.00381,-1.28672 3.09494,-1.14628 0.92517,0.11908 2.48678,0.69243 2.29254,1.60478 -0.25123,1.18002 -2.36728,0.90816 -3.55344,0.68777 -0.7088,-0.13169 -1.90741,-0.42908 -1.83404,-1.14627 z"
               style="fill:#550000;fill-opacity:1;fill-rule:evenodd;stroke:none;stroke-width:1px;stroke-linecap:butt;stroke-linejoin:miter;stroke-opacity:1" /><path
               sodipodi:nodetypes="cscsscssc"
               inkscape:connector-curvature="0"
               id="path4307-3"
               d="m -603.06713,435.50533 c 0,0 32.90794,28.36648 19.71588,34.84667 -12.78936,6.28238 -31.63712,-27.51053 -31.63712,-27.51053 0,0 8.42646,22.86489 17.88185,34.38817 7.02596,8.56254 22.31834,17.21615 28.88607,26.13501 11.54477,15.6776 22.00843,54.10406 22.00843,54.10406 0,0 -2.45884,-32.96057 -7.33615,-48.60195 -4.55788,-14.61698 -11.55835,-28.60902 -20.17439,-41.2658 -8.1574,-11.98306 -29.34457,-32.09563 -29.34457,-32.09563 z"
               style="fill:#535259;fill-opacity:1;fill-rule:evenodd;stroke:none;stroke-width:1px;stroke-linecap:butt;stroke-linejoin:miter;stroke-opacity:1;filter:url(#filter4447)" /><path
               sodipodi:nodetypes="csssc"
               inkscape:connector-curvature="0"
               id="path4309-7"
               d="m -720.44543,837.15917 c 0,0 -20.06165,-37.59006 -38.51475,-41.2658 -3.62229,-0.72154 -9.38167,0.95964 -10.0872,4.58509 -3.22153,16.55416 19.34972,30.02769 34.84668,36.68071 4.21323,1.80879 13.75527,0 13.75527,0 z"
               style="fill:#000000;fill-rule:evenodd;stroke:#000000;stroke-width:1px;stroke-linecap:butt;stroke-linejoin:miter;stroke-opacity:1;filter:url(#filter4327-2)" /><path
               transform="matrix(1.1282506,0,0,0.93189571,-1129.8537,190.96601)"
               style="fill:#000000;fill-rule:evenodd;stroke:#000000;stroke-width:1px;stroke-linecap:butt;stroke-linejoin:miter;stroke-opacity:1;filter:url(#filter4357-1)"
               d="m 361.99245,734.73892 c 0,0 -29.00221,-39.55813 -47.45531,-43.23387 -3.62229,-0.72154 -15.07112,-17.73703 -15.77665,-14.11158 -3.22153,16.55416 27.47751,35.9319 40.53613,62.26562 2.301,4.64014 22.69583,-4.92017 22.69583,-4.92017 z"
               id="path4331-5"
               inkscape:connector-curvature="0"
               sodipodi:nodetypes="csssc" /><path
               sodipodi:nodetypes="ccccssssscccscccc"
               inkscape:connector-curvature="0"
               id="path4363-9"
               d="m -803.89406,919.69079 -8.25316,9.17018 -8.25316,1.83403 -0.91702,4.58509 c 0,0 -10.81907,4.07103 -16.50632,4.58509 -3.36256,0.30394 -6.99015,-2.26143 -10.0872,-0.91702 -6.39397,2.77557 -12.92429,9.53645 -12.83825,16.50633 0.0536,4.34409 5.27423,6.92492 8.25316,10.08719 3.70815,3.93637 6.97612,8.81533 11.92124,11.00422 9.54041,4.22293 31.17861,2.75105 31.17861,2.75105 l 33.92966,-8.25316 13.75527,-7.33614 c 0,0 31.47928,-2.5461 44.01686,-11.00422 3.44662,-2.32517 7.33614,-10.0872 7.33614,-10.0872 v -20.17439 l -3.66807,-5.50211 z"
               style="fill:#37302b;fill-opacity:1;fill-rule:evenodd;stroke:#000000;stroke-width:1px;stroke-linecap:butt;stroke-linejoin:miter;stroke-opacity:1" /><path
               sodipodi:nodetypes="ccsssssssscccccccssccccccccccc"
               inkscape:connector-curvature="0"
               id="path3355-2"
               d="m -778.79563,388.56556 c -6.46587,-1.88724 -6.37205,-8.36626 -6.9428,-14.38008 0,0 2.85093,-13.69605 6.02579,-19.83273 3.10597,-6.00355 8.6881,-10.23088 13.80695,-14.64529 6.00966,-5.18263 11.93301,-10.28968 19.37421,-13.04726 4.13375,-1.5319 8.84003,-1.04787 12.96859,-2.59372 6.52782,-2.44421 11.41913,-8.58579 18.15603,-10.37487 6.26707,-1.66431 13.65316,0.30969 19.45289,3.20956 3.86649,1.93324 4.57101,4.27012 7.78115,7.16531 3.74364,3.37635 8.53536,6.9826 11.59307,10.99072 6.807,8.92279 10.45354,29.21192 10.45354,29.21192 l 2.59372,42.79635 7.78115,7.78115 -9.07801,6.4843 -16.85917,-5.18744 -7.78115,-9.07801 4.72892,-21.5881 c 0,0 -4.39742,-7.89182 -8.6195,-10.73259 -2.22131,-1.49458 -5.40156,-3.21835 -7.78116,-1.99137 -4.52986,2.33571 -5.50211,12.26545 -5.50211,12.26545 l -3.27472,4.88626 -0.45851,10.97723 -8.92069,6.18312 -6.48429,-32.42148 h -7.78116 l 1.29686,7.78115 -12.96859,-11.67173 -20.74975,9.07802 -14.26545,1.29685 c -2.29513,3.33443 -0.0413,5.2692 1.45419,7.43728 z"
               style="fill:#1f1b19;fill-opacity:1;fill-rule:evenodd;stroke:#000000;stroke-width:1px;stroke-linecap:butt;stroke-linejoin:miter;stroke-opacity:1" /><path
               sodipodi:nodetypes="ccsc"
               inkscape:connector-curvature="0"
               id="path4451"
               d="m -776.88437,540.33521 31.63712,-4.12658 c 0,0 -5.47851,5.8923 -9.17018,6.87764 -7.28972,1.9457 -22.46694,-2.75106 -22.46694,-2.75106 z"
               style="fill:#000000;fill-rule:evenodd;stroke:#000000;stroke-width:1px;stroke-linecap:butt;stroke-linejoin:miter;stroke-opacity:1" /></g><path
             style="fill:#000000;fill-rule:evenodd;stroke:#000000;stroke-width:1px;stroke-linecap:butt;stroke-linejoin:miter;stroke-opacity:1"
             d="m 621.73815,434.29213 -232.00554,349.38383 -2.75105,0.91701 -6.41913,9.17018 11.00422,8.25316 7.33614,-10.08719 -1.83403,-2.75106 232.00553,-344.79873 c 0,0 3.92787,-9.30993 0.91702,-11.92123 -2.12899,-1.84647 -8.25316,1.83403 -8.25316,1.83403 z"
             id="path4386"
             inkscape:connector-curvature="0"
             sodipodi:nodetypes="ccccccccsc" /></g></g></g><rect
       style="fill:#501616;fill-opacity:1"
       id="rect9596"
       width="6.2484488"
       height="54.411598"
       x="781.67145"
       y="556.23505" /><rect
       style="fill:#501616;fill-opacity:1"
       id="rect9596-5"
       width="6.2484488"
       height="54.411598"
       x="730.51672"
       y="478.62527" /><rect
       style="fill:#501616;fill-opacity:1"
       id="rect9596-9"
       width="6.2484488"
       height="54.411598"
       x="1129.1781"
       y="427.73773" /></g></svg>
