<?xml version="1.0" encoding="UTF-8" standalone="no"?>
<!-- Created with Inkscape (http://www.inkscape.org/) -->

<svg
   xmlns:dc="http://purl.org/dc/elements/1.1/"
   xmlns:cc="http://creativecommons.org/ns#"
   xmlns:rdf="http://www.w3.org/1999/02/22-rdf-syntax-ns#"
   xmlns:svg="http://www.w3.org/2000/svg"
   xmlns="http://www.w3.org/2000/svg"
   xmlns:sodipodi="http://sodipodi.sourceforge.net/DTD/sodipodi-0.dtd"
   xmlns:inkscape="http://www.inkscape.org/namespaces/inkscape"
   width="800mm"
   height="800mm"
   viewBox="0 0 800 800"
   version="1.1"
   id="svg4498"
   inkscape:version="0.91 r13725"
   sodipodi:docname="ilug-d(logo).svg">
  <defs
     id="defs4492">
    <clipPath
       clipPathUnits="userSpaceOnUse"
       id="clipPath5258">
      <rect
         style="opacity:0.32400004;fill:#b3b3b3;fill-opacity:1;fill-rule:evenodd;stroke-width:0.26458332"
         id="rect5260"
         width="187.47618"
         height="152.70239"
         x="144.81136"
         y="409.29181"
         transform="matrix(0.50249324,-0.86458114,0.86458114,0.50249324,0,0)" />
    </clipPath>
    <clipPath
       clipPathUnits="userSpaceOnUse"
       id="clipPath5264">
      <rect
         style="opacity:0.32400004;fill:#b3b3b3;fill-opacity:1;fill-rule:evenodd;stroke-width:0.24192606"
         id="rect5266"
         width="113.39286"
         height="154.21429"
         x="320.28455"
         y="-242.91695"
         transform="matrix(0.84929349,0.52792099,-0.52792099,0.84929349,0,0)" />
    </clipPath>
  </defs>
  <sodipodi:namedview
     id="base"
     pagecolor="#ffffff"
     bordercolor="#666666"
     borderopacity="1.0"
     inkscape:pageopacity="0.0"
     inkscape:pageshadow="2"
     inkscape:zoom="0.175"
     inkscape:cx="859.63873"
     inkscape:cy="1582.3657"
     inkscape:document-units="mm"
     inkscape:current-layer="layer1"
     showgrid="false"
     inkscape:window-width="1307"
     inkscape:window-height="744"
     inkscape:window-x="59"
     inkscape:window-y="24"
     inkscape:window-maximized="1"
     units="mm" />
  <metadata
     id="metadata4495">
    <rdf:RDF>
      <cc:Work
         rdf:about="">
        <dc:format>image/svg+xml</dc:format>
        <dc:type
           rdf:resource="http://purl.org/dc/dcmitype/StillImage" />
        <dc:title></dc:title>
      </cc:Work>
    </rdf:RDF>
  </metadata>
  <g
     inkscape:label="Layer 1"
     inkscape:groupmode="layer"
     id="layer1"
     transform="translate(0,503)">
    <path
       sodipodi:nodetypes="cscccscsccccccsccccsccsscsc"
       inkscape:connector-curvature="0"
       id="path5278"
       d="m -106.17002,870.37966 c 3.20838,-0.5183 6.236871,1.11386 7.690162,4.56927 2.69529,6.40844 4.74769,13.57835 7.11249,15.65303 5.39772,7.36361 11.85833,7.2667 18.47079,6.10413 -8.2772,4.24032 -16.45834,6.94804 -23.75159,-4.51233 -2.7972,-3.61375 -3.542532,-8.9868 -4.325552,-12.96632 -0.60412,-3.07033 -2.8964,-5.0098 -5.78464,-5.15892 -4.08618,1.80678 -7.98433,3.74443 -11.09217,7.26307 -2.28748,2.58982 -5.71321,4.13445 -9.05362,5.06599 -3.03518,0.84438 -7.54463,-0.22182 -11.99713,-1.21421 -5.59174,-1.39847 -9.65704,0.10522 -9.61199,9.42383 l 2.31784,37.88807 c -0.26644,10.76021 -3.6768,30.12533 1.55165,40.13834 9.95493,18.80973 23.699,10.83503 33.24298,2.63292 8.05054,-6.87194 14.699172,-14.39429 20.591802,-22.24352 11.25701,-14.99481 32.46129,-35.59716 28.26443,-47.20091 -0.27414,-2.87059 -2.29315,-4.55144 -4.14796,-6.34421 -1.0076,-3.01696 0.28123,-4.17909 4.3455,-3.09942 3.98168,3.06164 6.11475,7.083 7.21541,10.17956 -0.61101,20.6512 -21.65556,40.58789 -34.9103,55.17547 -16.350512,17.99461 -28.013552,29.93587 -43.234492,28.0689 -8.59957,-2.87397 -14.01165,-8.28257 -17.99738,-16.70104 -3.07577,-13.71086 -0.0313,-34.68975 -0.40249,-52.65745 -0.19023,-9.20927 -1.39792,-17.72276 -2.5738,-24.44606 -1.37237,-7.84682 1.68666,-13.52482 4.44675,-14.93708 6.98256,-3.64077 15.66176,0.0579 23.12043,-1.15849 7.14566,-1.16524 13.00492,-7.77053 20.51288,-9.52262 z"
       style="opacity:1;fill:#000000;fill-opacity:1;fill-rule:evenodd;stroke-width:0.34558296" />
    <g
       id="g5405"
       transform="translate(-799.70123,721.978)">
      <g
         transform="matrix(1.3030394,0,0,1.3030394,-44.442889,-752.77737)"
         id="g5350">
        <path
           sodipodi:nodetypes="cscccscsccccccsccccsccsscsc"
           inkscape:connector-curvature="0"
           id="path5248"
           d="m 477.20077,-62.220703 c 3.40896,-0.5507 6.62677,1.18349 8.17091,4.85491 2.86379,6.80907 5.04449,14.42721 7.55713,16.63159 5.73515,7.82395 12.59965,7.72098 19.62548,6.48572 -8.79464,4.50542 -17.48723,7.38241 -25.23641,-4.7944 -2.97207,-3.83967 -3.76399,-9.54862 -4.59596,-13.77692 -0.64189,-3.26227 -3.07747,-5.32299 -6.14626,-5.48144 -4.34163,1.91973 -8.48347,3.97853 -11.7856,7.71713 -2.43048,2.75173 -6.07037,4.39292 -9.6196,5.38269 -3.22492,0.89717 -8.01628,-0.23569 -12.74713,-1.29011 -5.9413,-1.4859 -10.26074,0.11179 -10.21288,10.01296 l 2.46274,40.2566366 c -0.28309,11.4328744 -3.90665,32.0085804 1.64865,42.6475424 10.57726,19.985603 25.18054,11.51238 35.32115,2.797522 8.55382,-7.301531 15.61809,-15.294142 21.87909,-23.63405 11.96074,-15.9322054 34.4906,-37.822488 30.03137,-50.151651 -0.29127,-3.05005 -2.4365,-4.83597 -4.40727,-6.74082 -1.07058,-3.20557 0.29882,-4.44034 4.61716,-3.29319 4.23059,3.25305 6.49701,7.52581 7.66648,10.81594 -0.64921,21.9422176 -23.00935,43.125228 -37.0927,58.624727 -17.37266,19.119535 -29.76481,31.80728 -45.93728,29.823604 -9.13717,-3.053632 -14.88758,-8.800354 -19.12248,-17.745085 -3.26805,-14.567977 -0.0333,-36.858341 -0.42765,-55.9492894 -0.20212,-9.7849866 -1.48531,-18.8306966 -2.7347,-25.9742966 -1.45816,-8.33737 1.7921,-14.37033 4.72474,-15.87088 7.41907,-3.86837 16.64084,0.0615 24.56579,-1.23091 7.59237,-1.23808 13.81792,-8.25631 21.79523,-10.11793 z"
           style="opacity:1;fill:#000000;fill-opacity:1;fill-rule:evenodd;stroke-width:0.36718693"
           clip-path="url(#clipPath5258)"
           transform="matrix(0.88831622,0,0,0.88831622,-136.31971,501.17366)" />
        <path
           style="opacity:1;fill:#000000;fill-opacity:1;fill-rule:evenodd;stroke-width:0.36718693"
           d="m 465.10553,13.374535 c 3.40896,-0.5507 6.62677,1.18349 8.17091,4.85491 2.86379,6.80907 5.04449,14.42721 7.55713,16.63159 5.73515,7.82395 12.59965,7.72098 19.62548,6.48572 -8.79464,4.50542 -17.48723,7.38241 -25.23641,-4.7944 -2.97207,-3.83967 -3.76399,-9.54862 -4.59596,-13.77692 -0.64189,-3.26227 -3.07747,-5.32299 -6.14626,-5.48144 -4.34163,1.91973 -8.48347,3.97853 -11.7856,7.71713 -2.43048,2.75173 -6.07037,4.39292 -9.6196,5.38269 -3.22492,0.89717 -8.01628,-0.23569 -12.74713,-1.29011 -5.9413,-1.4859 -10.26074,0.11179 -10.21288,10.01296 l 2.46274,40.256633 c -0.28309,11.43288 -3.90665,32.008582 1.64865,42.647552 10.57726,19.9856 25.18054,11.51238 35.32115,2.79752 8.55382,-7.30153 15.61809,-15.29414 21.87909,-23.63405 11.96074,-15.932212 34.4906,-37.822492 30.03137,-50.151655 -0.29127,-3.05005 -2.4365,-4.83597 -4.40727,-6.74082 -1.07058,-3.20557 0.29882,-4.44034 4.61716,-3.29319 4.23059,3.25305 6.49701,7.52581 7.66648,10.815943 -0.64921,21.94222 -23.00935,43.12523 -37.0927,58.624722 -17.37266,19.11954 -29.76481,31.80728 -45.93728,29.82361 -9.13717,-3.05363 -14.88758,-8.80036 -19.12248,-17.74509 -3.26805,-14.56797 -0.0333,-36.858342 -0.42765,-55.949292 -0.20212,-9.78498 -1.48531,-18.830693 -2.7347,-25.974293 -1.45816,-8.33737 1.7921,-14.37033 4.72474,-15.87088 7.41907,-3.86837 16.64084,0.0615 24.56579,-1.23091 7.59237,-1.23808 13.81792,-8.25631 21.79523,-10.11793 z"
           id="path5250"
           inkscape:connector-curvature="0"
           sodipodi:nodetypes="cscccscsccccccsccccsccsscsc"
           clip-path="url(#clipPath5264)"
           transform="matrix(0.88831622,0,0,0.88831622,-124.85969,424.04947)" />
        <g
           transform="matrix(0.30612174,0,0,0.30612174,84.839036,510.66676)"
           id="g5276">
          <path
             style="fill:#ffcc00;fill-opacity:1;stroke-width:0.26458332"
             d="m 97.616234,-242.46439 18.174326,305.404616 63.5,0 19.2434,-304.335536 z"
             id="path5272"
             inkscape:connector-curvature="0"
             sodipodi:nodetypes="ccccc" />
          <rect
             style="fill:#ffcc00;fill-opacity:1;stroke-width:0.26458332"
             id="rect5274"
             width="63.814564"
             height="63.814564"
             x="114.71072"
             y="78.511681" />
        </g>
        <text
           id="text5282"
           y="561.24188"
           x="342.37799"
           style="font-style:normal;font-variant:normal;font-weight:normal;font-stretch:normal;font-size:169.59864807px;line-height:1.25;font-family:Aharoni;-inkscape-font-specification:Aharoni;letter-spacing:0px;word-spacing:0px;fill:#000000;fill-opacity:1;stroke:none;stroke-width:1.75079679"
           xml:space="preserve"><tspan
             style="font-size:169.59864807px;stroke-width:1.75079679"
             y="561.24188"
             x="342.37799"
             id="tspan5280"
             sodipodi:role="line">G</tspan></text>
        <text
           id="text5286"
           y="554.63098"
           x="149.07072"
           style="font-style:normal;font-variant:normal;font-weight:normal;font-stretch:normal;font-size:25.39999962px;line-height:1.25;font-family:Aharoni;-inkscape-font-specification:Aharoni;letter-spacing:0px;word-spacing:0px;fill:#000000;fill-opacity:1;stroke:none;stroke-width:0.26458332"
           xml:space="preserve"><tspan
             style="font-size:176.3888855px;stroke-width:0.26458332"
             y="554.63098"
             x="149.07072"
             id="tspan5284"
             sodipodi:role="line">L</tspan></text>
      </g>
      <g
         transform="translate(-506.11007,375.85951)"
         id="g5389">
        <text
           id="text5385"
           y="-308.33057"
           x="875.854"
           style="font-style:normal;font-variant:normal;font-weight:normal;font-stretch:normal;font-size:45.27227783px;line-height:1.25;font-family:Aharoni;-inkscape-font-specification:Aharoni;letter-spacing:0px;word-spacing:0px;fill:#000000;fill-opacity:1;stroke:none;stroke-width:0.4715862"
           xml:space="preserve"><tspan
             style="font-style:normal;font-variant:normal;font-weight:500;font-stretch:normal;font-size:90.54455566px;font-family:Roboto;-inkscape-font-specification:'Roboto Medium';stroke-width:0.4715862"
             y="-308.33057"
             x="875.854"
             id="tspan5383"
             sodipodi:role="line">Delhi</tspan></text>
        <rect
           y="-341.34622"
           x="612.5257"
           height="6.4144688"
           width="256.57874"
           id="rect5387"
           style="opacity:1;fill:#ffcc00;fill-opacity:1;fill-rule:evenodd;stroke-width:0.26458332" />
      </g>
    </g>
    <g
       id="g5482"
       transform="translate(-214.70244,926.29429)">
      <text
         id="text5300"
         y="123.577"
         x="555.7829"
         style="font-style:normal;font-variant:normal;font-weight:normal;font-stretch:normal;font-size:45.27227783px;line-height:1.25;font-family:Aharoni;-inkscape-font-specification:Aharoni;letter-spacing:0px;word-spacing:0px;fill:#1a1a1a;fill-opacity:1;stroke:none;stroke-width:0.4715862"
         xml:space="preserve"><tspan
           style="font-style:normal;font-variant:normal;font-weight:500;font-stretch:normal;font-size:90.54455566px;font-family:Roboto;-inkscape-font-specification:'Roboto Medium';fill:#1a1a1a;stroke-width:0.4715862"
           y="123.577"
           x="555.7829"
           id="tspan5298"
           sodipodi:role="line">Delhi</tspan></text>
      <rect
         y="90.56134"
         x="292.45459"
         height="6.4144688"
         width="256.57874"
         id="rect5312"
         style="opacity:1;fill:#ffcc00;fill-opacity:1;fill-rule:evenodd;stroke-width:0.26458332" />
    </g>
    <g
       id="g5561"
       transform="translate(777.11905,550.33333)"
       inkscape:export-xdpi="72"
       inkscape:export-ydpi="72">
      <g
         id="g5539"
         style="fill:#ffcc00;fill-opacity:1"
         transform="translate(-128.39217,338.54949)">
        <path
           sodipodi:nodetypes="ccccc"
           inkscape:connector-curvature="0"
           id="path5535"
           d="m 206.60615,-116.90526 7.23948,121.65347 25.2943,0 7.66532,-121.22762 z"
           style="fill:#ffcc00;fill-opacity:1;stroke-width:0.1053929" />
        <rect
           y="10.950872"
           x="213.41548"
           height="25.4196"
           width="25.4196"
           id="rect5537"
           style="fill:#ffcc00;fill-opacity:1;stroke-width:0.1053929" />
      </g>
      <path
         style="opacity:1;fill:#ffcc00;fill-opacity:1;fill-rule:evenodd;stroke-width:0.44968361"
         d="m 295.40378,220.52032 c 4.17485,-0.67443 8.11562,1.44939 10.00669,5.94568 3.50719,8.33888 6.17784,17.6686 9.255,20.36824 7.02368,9.58176 15.43043,9.45566 24.03478,7.94287 -10.77056,5.51766 -21.41612,9.04103 -30.90633,-5.87157 -3.63981,-4.70233 -4.60965,-11.69392 -5.62854,-16.87219 -0.7861,-3.99522 -3.76889,-6.51893 -7.52716,-6.71297 -5.31707,2.35104 -10.38947,4.87239 -14.43349,9.45095 -2.97654,3.36996 -7.43421,5.37988 -11.78086,6.59203 -3.94947,1.09874 -9.81731,-0.28864 -15.61105,-1.57997 -7.27615,-1.81973 -12.56605,0.13692 -12.50743,12.26259 l 3.01605,49.30119 c -0.3467,14.00152 -4.78437,39.20001 2.01906,52.22925 12.95367,24.47581 30.83789,14.09889 43.25683,3.42605 10.47562,-8.94198 19.12703,-18.73031 26.7947,-28.94397 14.64799,-19.51172 42.23967,-46.32014 36.77859,-61.41933 -0.35672,-3.7353 -2.98392,-5.92248 -5.39746,-8.25529 -1.31112,-3.92578 0.36594,-5.43796 5.6545,-4.03308 5.18109,3.98392 7.95671,9.21664 9.38892,13.24599 -0.79506,26.87202 -28.1789,52.81426 -45.4264,71.79607 -21.2758,23.41515 -36.45212,38.95349 -56.2581,36.52413 -11.19003,-3.7397 -18.23241,-10.77754 -23.41876,-21.73191 -4.0023,-17.841 -0.0407,-45.13939 -0.52374,-68.51953 -0.24753,-11.98341 -1.81902,-23.06143 -3.34911,-31.81001 -1.78577,-10.21053 2.19474,-17.59893 5.78625,-19.43661 9.08594,-4.73748 20.37959,0.0753 30.08505,-1.50746 9.29816,-1.51625 16.92242,-10.11128 26.69201,-12.39115 z"
         id="path5541"
         inkscape:connector-curvature="0"
         sodipodi:nodetypes="cscccscsccccccsccccsccsscsc" />
      <text
         xml:space="preserve"
         style="font-style:normal;font-variant:normal;font-weight:normal;font-stretch:normal;font-size:220.68719482px;line-height:1.25;font-family:Aharoni;-inkscape-font-specification:Aharoni;letter-spacing:0px;word-spacing:0px;fill:#1a1a1a;fill-opacity:1;stroke:none;stroke-width:2.27819276"
         x="366.31741"
         y="371.9343"
         id="text5545"><tspan
           sodipodi:role="line"
           id="tspan5543"
           x="366.31741"
           y="371.9343"
           style="font-size:220.68719482px;fill:#1a1a1a;stroke-width:2.27819276">G</tspan></text>
      <text
         xml:space="preserve"
         style="font-style:normal;font-variant:normal;font-weight:normal;font-stretch:normal;font-size:33.05129242px;line-height:1.25;font-family:Aharoni;-inkscape-font-specification:Aharoni;letter-spacing:0px;word-spacing:0px;fill:#1a1a1a;fill-opacity:1;stroke:none;stroke-width:0.3442843"
         x="115.616"
         y="374.77103"
         id="text5549"><tspan
           sodipodi:role="line"
           id="tspan5547"
           x="115.616"
           y="374.77103"
           style="font-size:229.52285767px;fill:#1a1a1a;stroke-width:0.3442843">L</tspan></text>
      <g
         id="g5557"
         transform="translate(-213.69451,353.58476)">
        <text
           id="text5553"
           y="123.577"
           x="555.7829"
           style="font-style:normal;font-variant:normal;font-weight:normal;font-stretch:normal;font-size:45.27227783px;line-height:1.25;font-family:Aharoni;-inkscape-font-specification:Aharoni;letter-spacing:0px;word-spacing:0px;fill:#1a1a1a;fill-opacity:1;stroke:none;stroke-width:0.4715862"
           xml:space="preserve"><tspan
             style="font-style:normal;font-variant:normal;font-weight:500;font-stretch:normal;font-size:90.54455566px;font-family:Roboto;-inkscape-font-specification:'Roboto Medium';fill:#1a1a1a;stroke-width:0.4715862"
             y="123.577"
             x="555.7829"
             id="tspan5551"
             sodipodi:role="line">Delhi</tspan></text>
        <rect
           y="90.56134"
           x="292.45459"
           height="6.4144688"
           width="256.57874"
           id="rect5555"
           style="opacity:1;fill:#ffcc00;fill-opacity:1;fill-rule:evenodd;stroke-width:0.26458332" />
      </g>
      <path
         style="clip-rule:evenodd;fill:#1a1a1a;fill-rule:evenodd;stroke-width:1.95817876"
         inkscape:connector-curvature="0"
         id="path5559"
         d="m -535.91834,258.63504 c 9.15643,-0.94384 10.36465,-10.63678 6.05083,-14.86644 -3.55218,-3.48365 -23.15555,-18.03681 -28.27032,-23.75859 -2.37337,-2.65333 -5.59259,-3.95753 -6.95549,-6.94176 -3.13509,-6.86538 -5.33215,-16.66414 -1.35313,-23.70182 0.71864,-1.2689 1.18275,-0.69866 0.63057,1.95038 -3.12331,15.01136 6.65197,27.27346 8.80404,20.98581 1.48627,-4.3452 0.10953,-12.11727 0.90271,-18.2894 1.40604,-10.92276 11.3497,-31.89879 15.71645,-33.09716 -6.73619,-12.47747 7.8993,-22.24294 7.72109,-33.19507 -0.11768,-7.11991 6.25442,8.75507 12.65769,12.12112 7.15128,3.7597 15.01335,-7.08467 26.17101,-12.58516 3.15659,-1.5568 7.20613,-3.34458 6.93199,-4.67225 -1.31005,-6.40326 -14.65499,7.89737 -26.57252,8.37903 -5.44172,0.21907 -7.46064,-1.06715 -9.56178,-3.09783 -6.35227,-6.1389 0.64833,-1.0163 10.09051,-2.72379 4.19836,-0.75979 5.60825,-1.45888 10.06313,-3.25843 4.45481,-1.80155 9.5461,-4.46465 14.58446,-5.83339 3.50911,-0.95369 3.21928,-3.58933 1.85247,-4.38242 -0.78524,-0.4559 -1.95038,-0.41297 -2.87461,1.18275 -2.16183,3.74009 -12.33265,5.90192 -15.50486,6.87123 -4.07499,1.24736 -8.5827,2.4125 -14.57085,2.16767 -9.09766,-0.36782 -6.97699,-4.53902 -13.48594,-8.27135 -1.90923,-1.0926 -1.39227,-3.96721 1.14161,-6.50309 1.32766,-1.33151 4.96984,-2.07954 6.77331,-5.10299 0.25459,-0.4226 2.58095,-2.857006 4.40596,-4.118062 0.63057,-0.436658 0.68533,-11.545391 -5.01492,-11.774526 -4.84261,-0.19613 -6.21919,3.558025 -6.01552,7.298119 0.20131,3.738167 2.18336,6.822309 3.50319,6.808619 2.54172,-0.0222 0.16281,2.78062 -1.22975,3.23297 -2.11484,0.68903 -5.01291,-8.324264 -4.68002,-12.65185 0.34859,-4.507716 2.6944,-12.489248 8.40057,-12.334571 5.13828,0.139143 8.86076,6.58148 8.67278,17.690224 -0.037,1.883775 8.3301,-0.898846 11.12243,2.048224 1.99538,2.110913 -6.83793,-19.6836 12.82999,-21.183564 5.18328,0.990849 10.15904,2.716019 12.2288,14.62954 -0.76563,1.239519 1.28851,9.550027 -1.91116,10.537017 -3.90261,1.20422 -6.3132,-0.17467 -4.05537,-3.892916 1.54502,-3.73425 0.0371,-13.231427 -7.86408,-12.659628 -7.89929,0.569883 -6.85161,14.588464 -4.68786,14.866524 2.16576,0.27606 7.62125,4.14744 11.42795,4.88954 12.49902,2.43211 3.3152,9.59508 4.93654,18.26986 1.83484,9.79477 8.28311,7.20805 14.08327,33.14408 1.21013,1.58027 6.01352,3.07437 10.69361,23.0008 4.20813,17.92905 -1.75063,30.96663 8.37119,29.89749 2.27928,-0.24128 5.61017,-0.87924 7.05921,-5.95876 3.78908,-13.27842 -1.89939,-29.09855 -7.63686,-39.77455 -3.34458,-6.22505 -6.4914,-10.46449 -8.15582,-11.91945 6.57948,3.889 14.98983,16.30779 16.93044,25.53076 2.5495,12.10942 4.36865,17.23786 0.51289,30.04631 2.22644,1.11222 7.76607,3.46596 7.76607,6.10753 -5.76877,-4.74271 -23.43353,-5.58472 -23.8858,5.75516 -3.01369,0.0592 -5.29105,0.30565 -7.22966,2.60826 -7.10037,8.42602 -0.50919,25.34468 -1.22775,34.42088 -0.63278,7.98545 -2.84716,15.89843 -4.09653,23.91911 -4.22766,-0.1606 -3.81454,-3.25452 -2.45949,-7.59578 1.19652,-3.82823 3.12721,-8.62769 3.25259,-13.22942 0.11546,-4.16505 -0.34045,-6.76945 -1.39035,-7.41564 -1.04954,-0.64611 -2.69641,0.66609 -4.96784,4.32566 -4.85047,7.80915 -15.3541,11.24381 -25.16456,12.47163 -9.81053,1.23166 -18.92973,0.25681 -23.75858,-5.15197 -1.65079,-1.85048 -4.39027,0.50548 -4.71532,0.99476 -0.43444,0.65795 1.59787,1.93462 3.13113,4.75047 2.24013,4.10828 4.36866,10.34118 -0.936,13.18642 0.074,-14.46116 -4.50772,-15.3071 -9.18781,-24.14632 z m -3.5051,-0.38189 c 3.51495,5.53379 15.90428,28.83416 -5.81189,31.85562 -7.26291,1.01431 -18.95528,-4.22182 -30.28538,-6.99459 -10.17863,-2.48888 -20.5159,-3.96531 -26.30036,-5.59064 -3.48358,-0.97515 -4.93853,-2.22644 -5.24205,-3.68725 -0.80479,-3.86738 4.22966,-9.28956 4.48426,-13.86781 0.25459,-4.5821 -1.67033,-6.9613 -3.24667,-10.69754 -1.58025,-3.74402 -1.99146,-6.54811 -0.72825,-8.15383 0.983,-1.24735 2.98038,-1.77016 6.22897,-1.45296 4.12006,0.40558 9.09382,-0.43666 11.76669,-2.06983 4.50188,-2.74532 6.61872,-8.37119 4.59395,-15.15235 0,6.63625 -2.1756,9.14859 -7.6291,12.18181 -5.14022,2.86093 -13.07473,0.5462 -16.72091,3.71271 -4.38827,3.80477 1.56657,13.63484 1.07899,20.85067 -0.37375,5.54555 -6.16044,11.7902 -3.58157,17.35145 2.59657,5.59449 14.70007,6.20352 27.32255,8.84314 17.94092,3.75579 28.3996,10.28435 36.68862,10.59371 12.09177,0.4485 13.94423,-11.9625 32.93074,-12.13088 5.53572,-0.29011 10.95405,-0.46181 16.36255,-0.53065 6.13298,-0.0762 12.25619,-0.0297 18.54392,0.12508 12.63416,0.30196 8.28896,6.89475 16.48785,11.11065 6.9163,3.55218 19.35071,2.15014 22.32717,-0.68903 4.02599,-3.84 14.8332,-13.07673 23.11433,-17.24956 10.32549,-5.20489 34.56381,-14.15763 16.96565,-25.07447 -4.10037,-2.54764 -13.79729,-5.2362 -14.61192,-23.85065 -3.67155,3.26236 -3.24666,20.60591 6.99853,24.04841 11.44555,3.84393 18.59291,10.28042 -2.68272,17.55507 -14.08512,4.81907 -16.48,6.30335 -27.63182,15.58514 -11.28303,9.39333 -28.02739,5.66501 -25.10386,-14.11258 1.5235,-10.30394 2.40073,-18.81611 -0.1643,-27.77479 -1.25129,-4.37458 -1.87401,-9.98675 -1.02022,-13.92075 1.66447,-7.65255 5.808,-9.95929 9.86729,-2.60825 2.5495,4.60956 3.4405,10.00044 12.56562,10.44101 14.33387,0.68534 17.17518,-13.8522 21.75537,-14.514 3.05668,-0.44479 6.10951,-9.09182 3.78516,-23.0811 -2.49281,-14.98005 -11.30657,-38.62895 -22.60915,-50.62285 -9.39532,-9.96906 -15.31294,-18.70845 -19.03741,-31.18201 -3.12914,-10.48017 -4.87585,-20.682282 -4.23159,-30.434049 0.83608,-12.636089 -6.17221,-30.218631 -17.32794,-38.491901 -6.98291,-5.17936 -17.93497,-7.95215 -27.84727,-7.84254 -5.55925,0.0592 -10.79153,0.87139 -14.80975,3.05476 -16.54654,8.98222 -18.85528,21.8122 -18.60853,36.455439 0.23091,13.756233 0.6994,29.453001 2.26366,44.384121 -1.85046,6.85554 -11.48283,19.85398 -17.65115,27.76304 -8.29293,8.19305 -12.48147,24.02488 -17.84691,37.85747 -2.86094,7.3745 -7.6839,10.70539 -8.08925,20.18687 -0.11398,2.65133 -0.0222,9.51086 2.51234,7.54879 9.70282,-7.50571 21.84163,11.41226 40.17613,40.2719 z m 50.34086,-198.26952 c -0.5225,1.56257 -2.67293,2.86477 -1.30804,3.95746 1.36674,1.09461 2.15006,-1.52935 4.89931,-2.51234 0.70901,-0.25237 4.01429,0.10589 4.62132,-1.46473 0.26792,-0.68533 -1.70163,-1.46666 -2.87654,-2.58873 -1.17298,-1.12006 -2.32244,-2.11675 -3.42489,-2.0463 -2.84716,0.18429 -1.44903,3.27021 -1.91116,4.65464 z m 16.85598,57.03589 c 1.02415,-1.07314 1.55089,1.85632 4.30405,3.59326 2.18337,1.37851 4.30605,0.35821 4.85831,3.14675 0.39374,2.00131 -0.85578,4.17091 -2.53196,3.88893 -2.91961,-0.48921 -9.65777,-7.44888 -6.6304,-10.62894 z M -517.719,99.419372 c -4.53511,-0.338958 -4.84647,2.939238 -3.34458,2.886388 1.53134,-0.0518 0.59133,-2.594633 3.34458,-2.886388 z m -7.78178,-8.377106 c 0.53657,-0.11767 1.29821,0.797016 1.06323,2.077682 -0.32934,1.778017 -0.18576,2.892232 1.04569,2.896086 0.20352,0 0.42334,-0.03695 0.49956,-0.499564 0.59134,-3.542418 -1.24929,-6.140905 -2.00123,-6.334738 -1.73301,-0.442577 -1.52149,2.056071 -0.60688,1.860237 z m 33.0227,-1.497952 c 1.15138,0.342664 2.25775,2.33604 2.49865,4.488106 0.0222,0.199826 1.50581,-0.309363 1.51758,-0.779322 0.0918,-3.464042 -2.86485,-5.093217 -3.63832,-5.02076 -1.77995,0.1569 -1.27868,1.041684 -0.3782,1.311976 z m -16.92842,10.296109 c 4.12582,-1.911231 5.57102,1.051527 4.14344,1.527337 -1.45096,0.48773 -1.46465,-2.222513 -4.14344,-1.527337 z m -49.8201,70.284917 c -1.95039,-0.23684 0.56765,-1.69972 1.63504,-3.54434 1.17298,-2.02869 0.94584,-4.56056 2.17753,-4.18659 1.23168,0.37227 0.54619,1.7917 -0.29753,4.11606 -0.71864,1.97976 -2.79625,3.70101 -3.5149,3.61487 z" />
    </g>
    <g
       id="g4283"
       inkscape:export-xdpi="38.25423"
       inkscape:export-ydpi="38.25423">
      <rect
         y="-499.7746"
         x="3.2253966"
         height="796.77454"
         width="796.77454"
         id="rect4200"
         style="opacity:1;fill:#ffffff;fill-opacity:1;stroke:none;stroke-width:0;stroke-miterlimit:4;stroke-dasharray:none;stroke-opacity:1" />
      <path
         d="m 368.60674,-146.73512 c 9.08746,-0.93673 10.28657,-10.55667 6.00532,-14.75448 -3.52545,-3.4574 -22.98127,-17.90098 -28.05743,-23.57968 -2.35553,-2.63332 -5.55047,-3.92772 -6.90313,-6.88946 -3.11149,-6.81368 -5.29204,-16.53866 -1.34292,-23.52333 0.71311,-1.25934 1.17372,-0.69339 0.6257,1.93568 -3.09979,14.89831 6.60198,27.06808 8.73782,20.82777 1.47503,-4.31247 0.10882,-12.02601 0.89584,-18.15167 1.39553,-10.84049 11.2642,-31.65854 15.59807,-32.8479 -6.68543,-12.3835 7.83985,-22.07542 7.66305,-32.94508 -0.11708,-7.06628 6.20734,8.68913 12.56227,12.02984 7.09756,3.7314 14.90031,-7.03131 25.97403,-12.49038 3.13277,-1.54508 7.15182,-3.31939 6.87971,-4.63707 -1.30021,-6.35504 -14.54459,7.8379 -26.37231,8.31593 -5.40072,0.21742 -7.40447,-1.05909 -9.48985,-3.07448 -6.30447,-6.09269 0.64351,-1.00866 10.01462,-2.70328 4.16665,-0.75408 5.56597,-1.4479 9.98724,-3.2339 4.42127,-1.78798 9.47419,-4.43103 14.47466,-5.78946 3.48272,-0.94651 3.19511,-3.56229 1.8385,-4.34941 -0.77924,-0.45248 -1.93564,-0.40987 -2.85291,1.17384 -2.14557,3.71192 -12.23985,5.85746 -15.38813,6.81948 -4.04428,1.23796 -8.518,2.39434 -14.46114,2.15134 -9.02906,-0.36505 -6.92438,-4.50483 -13.38437,-8.20905 -1.8949,-1.08438 -1.38184,-3.93734 1.13298,-6.45413 1.3177,-1.32148 4.93252,-2.06386 6.72237,-5.06456 0.25265,-0.41941 2.5615,-2.83549 4.3728,-4.08705 0.62586,-0.43337 0.68011,-11.45844 -4.97722,-11.68584 -4.8062,-0.19466 -6.17237,3.53123 -5.97018,7.24316 0.19971,3.71001 2.16685,6.77092 3.47679,6.75734 2.52258,-0.0221 0.16161,2.75968 -1.22055,3.20861 -2.09891,0.68385 -4.97508,-8.26155 -4.64474,-12.55655 0.34599,-4.47378 2.67413,-12.39521 8.33724,-12.24168 5.09974,0.13819 8.79407,6.53189 8.60754,17.55698 -0.0363,1.86959 8.26732,-0.89207 11.03876,2.03281 1.98033,2.09501 -6.78652,-19.53537 12.73328,-21.02403 5.14428,0.98338 10.08257,2.69556 12.13679,14.51937 -0.75994,1.23019 1.27878,9.47809 -1.89689,10.45766 -3.87325,1.19515 -6.26555,-0.17335 -4.02481,-3.8636 1.5334,-3.70612 0.0363,-13.13179 -7.80489,-12.56429 -7.83969,0.5656 -6.79987,14.47861 -4.65249,14.75456 2.14938,0.27398 7.56379,4.11621 11.34188,4.85272 12.40494,2.4138 3.29027,9.52282 4.89938,18.13227 1.82101,9.72101 8.22064,7.15376 13.97725,32.89447 1.20094,1.56838 5.9682,3.05124 10.61295,22.82759 4.17653,17.79403 -1.73742,30.73342 8.30821,29.67234 2.26217,-0.23946 5.56795,-0.87263 7.00604,-5.9139 3.76061,-13.17841 -1.88501,-28.87939 -7.57929,-39.475 -3.31946,-6.17818 -6.44251,-10.38569 -8.09448,-11.82969 6.5299,3.85972 14.87705,16.18499 16.80295,25.33848 2.53033,12.01824 4.33585,17.10807 0.5091,29.82004 2.20956,1.10386 7.70759,3.43987 7.70759,6.06155 -5.72544,-4.70699 -23.25718,-5.54267 -23.70592,5.7118 -2.99111,0.0588 -5.25129,0.30337 -7.17522,2.58861 -7.04694,8.36258 -0.50532,25.15383 -1.21859,34.16167 -0.628,7.92532 -2.82569,15.77871 -4.06571,23.73899 -4.19566,-0.15931 -3.78569,-3.23002 -2.44094,-7.53859 1.18757,-3.7994 3.10374,-8.56272 3.22809,-13.12978 0.11545,-4.13368 -0.33791,-6.71848 -1.37986,-7.35979 -1.04162,-0.64125 -2.67611,0.66107 -4.93038,4.29308 -4.81394,7.75035 -15.23854,11.15914 -24.97512,12.37769 -9.73656,1.22239 -18.78707,0.25489 -23.57958,-5.11316 -1.63846,-1.83655 -4.35729,0.50168 -4.67987,0.98727 -0.43109,0.653 1.58585,1.92005 3.10754,4.7147 2.22326,4.07734 4.33585,10.2633 -0.92898,13.08712 0.0726,-14.35227 -4.47372,-15.19182 -9.11863,-23.96449 z m -3.47877,-0.37901 c 3.4885,5.49212 15.78459,28.617 -5.76816,31.61572 -7.20821,1.00668 -18.81248,-4.19003 -30.05722,-6.94192 -10.10202,-2.47014 -20.36138,-3.93544 -26.10233,-5.54854 -3.45733,-0.9678 -4.90135,-2.20966 -5.20265,-3.65947 -0.7987,-3.83826 4.19798,-9.2196 4.45063,-13.76338 0.25265,-4.54759 -1.65775,-6.90887 -3.22233,-10.61698 -1.56836,-3.71583 -1.97637,-6.49879 -0.72266,-8.09241 0.97548,-1.23797 2.95796,-1.75683 6.18194,-1.44203 4.08912,0.40254 9.02543,-0.43336 11.67814,-2.05424 4.46794,-2.72465 6.56883,-8.30815 4.55931,-15.03824 0,6.58628 -2.1591,9.07971 -7.57153,12.09007 -5.10156,2.8394 -12.97638,0.5421 -16.59501,3.68476 -4.3553,3.77612 1.55469,13.53215 1.07082,20.69363 -0.3709,5.5038 -6.114,11.70142 -3.55464,17.2208 2.57701,5.55234 14.58944,6.15679 27.11691,8.77653 17.80582,3.72751 28.18573,10.20689 36.41232,10.51392 12.00072,0.44513 13.83922,-11.8724 32.68271,-12.03951 5.49406,-0.28793 10.87153,-0.45834 16.23927,-0.52667 6.08678,-0.0757 12.16399,-0.0296 18.4043,0.12419 12.53902,0.29968 8.22659,6.84283 16.36379,11.02698 6.8642,3.52543 19.20498,2.13395 22.15898,-0.68384 3.99563,-3.81108 14.72154,-12.97824 22.9402,-17.11966 10.24782,-5.1657 34.30352,-14.05101 16.83792,-24.88564 -4.0695,-2.52844 -13.69344,-5.19676 -14.50186,-23.67102 -3.64385,3.23779 -3.22232,20.45072 6.94584,23.8673 11.35936,3.81497 18.45279,10.20299 -2.66259,17.42286 -13.97908,4.78278 -16.35587,6.25589 -27.42366,15.46778 -11.19807,9.32258 -27.81632,5.62233 -24.91492,-14.00631 1.51213,-10.22635 2.38273,-18.67441 -0.16327,-27.56563 -1.24183,-4.34162 -1.85978,-9.91153 -1.01243,-13.81591 1.65182,-7.5949 5.76419,-9.88428 9.79298,-2.58861 2.53033,4.57486 3.41461,9.92514 12.47089,10.36238 14.22596,0.68019 17.04588,-13.74787 21.59151,-14.40469 3.03366,-0.44144 6.06353,-9.02335 3.75665,-22.90728 -2.47393,-14.86724 -11.22132,-38.33803 -22.43884,-50.2416 -9.32461,-9.89399 -15.19765,-18.56757 -18.89396,-30.94718 -3.10556,-10.40125 -4.83917,-20.52654 -4.19978,-30.20487 0.82986,-12.54093 -6.1257,-29.99106 -17.19745,-38.202 -6.93033,-5.14037 -17.79988,-7.89226 -27.63754,-7.7835 -5.51733,0.0588 -10.71025,0.86484 -14.69828,3.03176 -16.42184,8.91456 -18.7132,21.64794 -18.4683,36.1809 0.22907,13.65264 0.69413,29.23118 2.2465,44.04985 -1.83652,6.80393 -11.39629,19.70448 -17.5182,27.55397 -8.23038,8.13134 -12.38745,23.84395 -17.71248,37.57238 -2.83939,7.31895 -7.62595,10.62476 -8.02835,20.03484 -0.11386,2.63136 -0.0214,9.43924 2.49339,7.49194 9.62987,-7.44918 21.67726,11.32631 39.8736,39.96862 z m 49.96179,-196.77638 c -0.5185,1.55081 -2.6527,2.84321 -1.29823,3.92766 1.35644,1.08636 2.13386,-1.51782 4.86243,-2.49341 0.7037,-0.25048 3.98407,0.10504 4.58652,-1.45371 0.26601,-0.68017 -1.68876,-1.4556 -2.85489,-2.56922 -1.16416,-1.11164 -2.30488,-2.10082 -3.39912,-2.03089 -2.8257,0.18289 -1.43808,3.24557 -1.89671,4.61957 z m 16.72907,56.60637 c 1.01639,-1.06506 1.53918,1.84233 4.27169,3.5662 2.16686,1.36812 4.27351,0.35552 4.8217,3.12306 0.39069,1.98623 -0.84933,4.1395 -2.51285,3.85963 -2.89777,-0.48552 -9.58517,-7.39278 -6.58054,-10.54889 z m -45.14982,-17.46761 c -4.50093,-0.33639 -4.80999,2.9171 -3.31946,2.86465 1.51988,-0.0514 0.58694,-2.57508 3.31946,-2.86465 z m -7.72309,-8.31402 c 0.53252,-0.11676 1.28834,0.79102 1.05514,2.06205 -0.32687,1.76462 -0.18437,2.87043 1.03783,2.87426 0.20203,0 0.42021,-0.0367 0.49574,-0.49578 0.58694,-3.51575 -1.23984,-6.09467 -1.9861,-6.28704 -1.71993,-0.43924 -1.50999,2.04058 -0.60228,1.84624 z m 32.77391,-1.48667 c 1.14272,0.3401 2.24073,2.31845 2.47987,4.45431 0.0214,0.19832 1.49447,-0.30703 1.50619,-0.77344 0.0907,-3.43796 -2.84334,-5.05488 -3.61104,-4.98295 -1.76643,0.15567 -1.26904,1.03383 -0.37535,1.30208 z m -16.80098,10.21858 c 4.09474,-1.89684 5.52919,1.04361 4.11222,1.51582 -1.4399,0.48407 -1.45358,-2.20576 -4.11222,-1.51582 z m -49.44493,69.75561 c -1.93564,-0.23506 0.56353,-1.68693 1.62279,-3.51765 1.16415,-2.01341 0.93871,-4.52623 2.16107,-4.15506 1.22254,0.36947 0.54209,1.77821 -0.29519,4.08505 -0.71327,1.96487 -2.77524,3.67314 -3.48851,3.58766 z"
         id="path6"
         inkscape:connector-curvature="0"
         style="clip-rule:evenodd;fill:#1a1a1a;fill-rule:evenodd;stroke-width:1.17842603" />
      <g
         transform="translate(-13.891478,-28.22222)"
         id="g4269">
        <g
           transform="matrix(0.85607646,0,0,0.85607646,-116.58631,75.560188)"
           id="g4539">
          <path
             sodipodi:nodetypes="ccccc"
             inkscape:connector-curvature="0"
             id="rect5070"
             d="m 281.41396,-124.89976 7.23948,121.6534707 25.2943,0 7.66532,-121.2276207 z"
             style="fill:#1a1a1a;fill-opacity:1;stroke-width:0.1053929" />
          <rect
             y="2.9563732"
             x="288.75247"
             height="25.4196"
             width="25.4196"
             id="rect5073"
             style="fill:#1a1a1a;fill-opacity:1;stroke-width:0.1053929" />
        </g>
        <path
           style="opacity:1;fill:#ffcc00;fill-opacity:1;fill-rule:evenodd;stroke-width:0.44968361"
           d="m 322.48776,-33.392891 c 3.57395,-0.577364 6.94757,1.240788 8.5665,5.089956 3.00243,7.138719 5.28867,15.125673 7.92299,17.436771 6.01282,8.2027299 13.2096,8.0947786 20.57562,6.7997122 -9.22045,4.72354144 -18.3339,7.7398155 -26.45824,-5.0265127 -3.11594,-4.0255625 -3.94617,-10.0108975 -4.81842,-14.4438925 -0.67297,-3.420214 -3.22647,-5.580703 -6.44386,-5.746816 -4.55176,2.01267 -8.89412,4.171138 -12.35618,8.090736 -2.54811,2.884943 -6.36425,4.605588 -10.08527,5.643281 -3.38107,0.940606 -8.40436,-0.247097 -13.36429,-1.352575 -6.2289,-1.557828 -10.75746,0.117214 -10.70729,10.4977231 l 2.58201,42.2055849 c -0.2968,11.986371 -4.09581,33.558207 1.72842,44.712233 11.08935,20.95316 26.3996,12.069728 37.03112,2.932961 8.96801,-7.655019 16.37427,-16.034578 22.93832,-24.778254 12.5398,-16.703524 36.16041,-39.653574 31.48529,-52.5796359 -0.30536,-3.1977024 -2.55445,-5.0700957 -4.62059,-7.06715946 -1.1224,-3.36077044 0.31324,-4.65531214 4.84069,-3.45262744 4.43542,3.4105427 6.81154,7.8901512 8.03761,11.3395828 -0.68066,23.004497 -24.12329,45.213038 -38.88847,61.462921 -18.21371,20.045159 -31.20578,33.347162 -48.16123,31.267448 -9.5795,-3.201469 -15.60833,-9.226398 -20.04829,-18.604177 -3.42627,-15.27326 -0.0351,-38.642771 -0.44832,-58.657958 C 271.584,12.1177 270.23867,2.6340698 268.92879,-4.8553862 c -1.52878,-8.7410028 1.87883,-15.0660378 4.95343,-16.6392328 7.77831,-4.055645 17.4465,0.06446 25.75515,-1.290501 7.95988,-1.298026 14.48686,-8.656028 22.85039,-10.607771 z"
           id="rect5236"
           inkscape:connector-curvature="0"
           sodipodi:nodetypes="cscccscsccccccsccccsccsscsc" />
        <text
           xml:space="preserve"
           style="font-style:normal;font-variant:normal;font-weight:normal;font-stretch:normal;font-size:188.92510986px;line-height:1.25;font-family:Aharoni;-inkscape-font-specification:Aharoni;letter-spacing:0px;word-spacing:0px;fill:#1a1a1a;fill-opacity:1;stroke:none;stroke-width:2.27819276"
           x="389.08441"
           y="95.977745"
           id="text5254"><tspan
             sodipodi:role="line"
             id="tspan5252"
             x="389.08441"
             y="95.977745"
             style="font-size:188.92510986px;fill:#1a1a1a;stroke-width:2.27819276">G</tspan></text>
        <text
           xml:space="preserve"
           style="font-style:normal;font-variant:normal;font-weight:normal;font-stretch:normal;font-size:28.29443359px;line-height:1.25;font-family:Aharoni;-inkscape-font-specification:Aharoni;letter-spacing:0px;word-spacing:0px;fill:#1a1a1a;fill-opacity:1;stroke:none;stroke-width:0.3442843"
           x="163.13962"
           y="99.852188"
           id="text5270"><tspan
             sodipodi:role="line"
             id="tspan5268"
             x="163.13962"
             y="99.852188"
             style="font-size:196.48912048px;fill:#1a1a1a;stroke-width:0.3442843">L</tspan></text>
        <text
           xml:space="preserve"
           style="font-style:normal;font-variant:normal;font-weight:normal;font-stretch:normal;font-size:151.00238037px;line-height:1.25;font-family:Aharoni;-inkscape-font-specification:Aharoni;letter-spacing:0px;word-spacing:0px;fill:#1a1a1a;fill-opacity:1;stroke:none;stroke-width:0.26458332"
           x="539.22931"
           y="68.410652"
           id="text5486"><tspan
             sodipodi:role="line"
             id="tspan5484"
             x="539.22931"
             y="68.410652"
             style="font-size:151.00238037px;fill:#1a1a1a;stroke-width:0.26458332">-</tspan></text>
        <text
           xml:space="preserve"
           style="font-style:normal;font-variant:normal;font-weight:normal;font-stretch:normal;font-size:194.96488953px;line-height:1.25;font-family:Aharoni;-inkscape-font-specification:Aharoni;letter-spacing:0px;word-spacing:0px;fill:#1a1a1a;fill-opacity:1;stroke:none;stroke-width:0.34161356"
           x="602.77875"
           y="96.617279"
           id="text5490"
           transform="scale(0.96760301,1.0334817)"><tspan
             sodipodi:role="line"
             id="tspan5488"
             x="602.77875"
             y="96.617279"
             style="font-size:194.96488953px;fill:#1a1a1a;stroke-width:0.34161356">D</tspan></text>
      </g>
    </g>
  </g>
</svg>
